<svg width="506.893" height="189.613" viewBox="0 0 380.17 142.21" class="displayed_equation" xmlns="http://www.w3.org/2000/svg">
  <path d="M 328.203125 872.295312 L 3359.335938 872.295312" transform="matrix(.1 0 0 -.1 0 142.21)" fill="none" stroke-width="7.97" stroke-linecap="round" stroke-linejoin="round" stroke="#000" stroke-miterlimit="10" />
  <path d="M 339.796875 54.980469 L 334.328125 52.917969 L 336.132813 54.980469 L 334.328125 57.046875" />
  <path d="M 3397.96875 872.295312 L 3343.28125 892.920312 L 3361.328125 872.295312 L 3343.28125 851.63125 Z M 3397.96875 872.295312" transform="matrix(.1 0 0 -.1 0 142.21)" fill="none" stroke-width="7.97" stroke-linecap="round" stroke="#000" stroke-miterlimit="10" />
  <path d="M 328.203125 872.295312 L 328.203125 936.475" transform="matrix(.1 0 0 -.1 0 142.21)" fill="none" stroke-width="7.97" stroke-linecap="round" stroke-linejoin="round" stroke="#000" stroke-miterlimit="10" />
  <path d="M112.398438 54.980469C112.398438 53.574219 111.257813 52.429688 109.847656 52.429688 108.4375 52.429688 107.296875 53.574219 107.296875 54.980469 107.296875 56.390625 108.4375 57.53125 109.847656 57.53125 111.257813 57.53125 112.398438 56.390625 112.398438 54.980469zM138.074219 54.980469C138.074219 53.574219 136.933594 52.429688 135.523438 52.429688 134.113281 52.429688 132.972656 53.574219 132.972656 54.980469 132.972656 56.390625 134.113281 57.53125 135.523438 57.53125 136.933594 57.53125 138.074219 56.390625 138.074219 54.980469zM138.074219 54.980469" fill="#ec6258" />
  <path d="M142.4375 54.980469C142.4375 53.574219 141.296875 52.429688 139.886719 52.429688 138.480469 52.429688 137.339844 53.574219 137.339844 54.980469 137.339844 56.390625 138.480469 57.53125 139.886719 57.53125 141.296875 57.53125 142.4375 56.390625 142.4375 54.980469zM163.75 54.980469C163.75 53.574219 162.609375 52.429688 161.199219 52.429688 159.789063 52.429688 158.648438 53.574219 158.648438 54.980469 158.648438 56.390625 159.789063 57.53125 161.199219 57.53125 162.609375 57.53125 163.75 56.390625 163.75 54.980469zM176.589844 54.980469C176.589844 53.574219 175.445313 52.429688 174.039063 52.429688 172.628906 52.429688 171.484375 53.574219 171.484375 54.980469 171.484375 56.390625 172.628906 57.53125 174.039063 57.53125 175.445313 57.53125 176.589844 56.390625 176.589844 54.980469zM197.128906 54.980469C197.128906 53.574219 195.988281 52.429688 194.578125 52.429688 193.167969 52.429688 192.027344 53.574219 192.027344 54.980469 192.027344 56.390625 193.167969 57.53125 194.578125 57.53125 195.988281 57.53125 197.128906 56.390625 197.128906 54.980469zM207.398438 54.980469C207.398438 53.574219 206.257813 52.429688 204.847656 52.429688 203.4375 52.429688 202.296875 53.574219 202.296875 54.980469 202.296875 56.390625 203.4375 57.53125 204.847656 57.53125 206.257813 57.53125 207.398438 56.390625 207.398438 54.980469zM207.398438 54.980469" fill="#ec6258" />
  <path d="M211.25 54.980469C211.25 53.574219 210.109375 52.429688 208.699219 52.429688 207.289063 52.429688 206.148438 53.574219 206.148438 54.980469 206.148438 56.390625 207.289063 57.53125 208.699219 57.53125 210.109375 57.53125 211.25 56.390625 211.25 54.980469zM222.804688 54.980469C222.804688 53.574219 221.664063 52.429688 220.253906 52.429688 218.84375 52.429688 217.703125 53.574219 217.703125 54.980469 217.703125 56.390625 218.84375 57.53125 220.253906 57.53125 221.664063 57.53125 222.804688 56.390625 222.804688 54.980469zM222.804688 54.980469" fill="#ec6258" />
  <path d="M226.65625 54.980469C226.65625 53.574219 225.515625 52.429688 224.105469 52.429688 222.695313 52.429688 221.554688 53.574219 221.554688 54.980469 221.554688 56.390625 222.695313 57.53125 224.105469 57.53125 225.515625 57.53125 226.65625 56.390625 226.65625 54.980469zM248.480469 54.980469C248.480469 53.574219 247.339844 52.429688 245.929688 52.429688 244.519531 52.429688 243.378906 53.574219 243.378906 54.980469 243.378906 56.390625 244.519531 57.53125 245.929688 57.53125 247.339844 57.53125 248.480469 56.390625 248.480469 54.980469zM317.804688 54.980469C317.804688 53.574219 316.664063 52.429688 315.253906 52.429688 313.847656 52.429688 312.703125 53.574219 312.703125 54.980469 312.703125 56.390625 313.847656 57.53125 315.253906 57.53125 316.664063 57.53125 317.804688 56.390625 317.804688 54.980469zM317.804688 54.980469" fill="#ec6258" />
  <path d="M 1098.476563 796.63125 L 1098.476563 743.896875" transform="matrix(.1 0 0 -.1 0 142.21)" fill="none" stroke-width="7.97" stroke-linecap="round" stroke-linejoin="round" stroke="#e14b3b" stroke-miterlimit="10" />
  <path d="M 109.847656 58.683594 L 107.785156 64.152344 L 109.847656 62.347656 L 111.910156 64.152344" fill="#e14b3b" />
  <path d="M 1098.476563 835.264062 L 1077.851563 780.576562 L 1098.476563 798.623437 L 1119.101563 780.576562 Z M 1098.476563 835.264062" transform="matrix(.1 0 0 -.1 0 142.21)" fill="none" stroke-width="7.97" stroke-linecap="round" stroke="#e14b3b" stroke-miterlimit="10" />
  <path d="M106.152344 73.085938L106.332031 72.183594 103.273438 72.183594 102.582031 75.09375 102.714844 75.261719C102.871094 75.261719 102.929688 75.261719 103.21875 75.285156 104.757813 75.363281 105.628906 75.816406 105.628906 77.214844 105.628906 78.371094 104.925781 78.796875 104.132813 78.796875 103.417969 78.796875 103.050781 78.25 102.605469 78.25 102.324219 78.25 102.15625 78.472656 102.15625 78.730469 102.15625 79.144531 102.582031 79.355469 103.441406 79.355469 105.214844 79.355469 106.441406 78.484375 106.441406 76.765625 106.441406 75.015625 105.070313 74.492188 103.753906 74.390625L103.230469 74.355469 103.53125 73.085938 106.152344 73.085938M112.320313 75.675781C112.320313 73.375 111.316406 72.046875 109.878906 72.046875 108.261719 72.046875 107.402344 73.519531 107.402344 75.640625 107.402344 77.613281 108.058594 79.332031 109.855469 79.332031 111.609375 79.332031 112.320313 77.582031 112.320313 75.675781zM111.238281 75.738281C111.238281 77.882813 110.738281 78.929688 109.855469 78.929688 108.964844 78.929688 108.472656 77.859375 108.472656 75.695313 108.472656 73.488281 108.964844 72.425781 109.84375 72.425781 110.757813 72.425781 111.238281 73.476563 111.238281 75.738281M117.777344 77.425781L117.453125 77.425781C117.195313 78.09375 117.050781 78.328125 116.460938 78.328125L114.910156 78.328125 114.128906 78.363281 114.128906 78.308594 115.601563 76.910156C116.785156 75.71875 117.417969 74.949219 117.417969 73.957031 117.417969 72.785156 116.539063 72.027344 115.277344 72.027344 114.195313 72.027344 113.4375 72.652344 113.089844 73.730469L113.359375 73.84375C113.773438 73.007813 114.261719 72.75 114.988281 72.75 115.847656 72.75 116.382813 73.285156 116.382813 74.121094 116.382813 75.292969 115.824219 75.996094 114.71875 77.136719L113.023438 78.832031 113.023438 79.210938 117.417969 79.210938 117.777344 77.425781" fill="#e14b3b" />
  <path d="M 3152.539063 796.63125 L 3152.539063 743.896875" transform="matrix(.1 0 0 -.1 0 142.21)" fill="none" stroke-width="7.97" stroke-linecap="round" stroke-linejoin="round" stroke="#e14b3b" stroke-miterlimit="10" />
  <path d="M 315.253906 58.683594 L 313.191406 64.152344 L 315.253906 62.347656 L 317.320313 64.152344" fill="#e14b3b" />
  <path d="M 3152.539063 835.264062 L 3131.914063 780.576562 L 3152.539063 798.623437 L 3173.203125 780.576562 Z M 3152.539063 835.264062" transform="matrix(.1 0 0 -.1 0 142.21)" fill="none" stroke-width="7.97" stroke-linecap="round" stroke="#e14b3b" stroke-miterlimit="10" />
  <path d="M307.847656 79.355469C310.3125 79.332031 311.921875 77.917969 311.921875 75.039063 311.921875 73.386719 311.238281 72.003906 309.578125 72.003906 308.171875 72.003906 307.335938 72.886719 307.335938 74.390625 307.335938 75.863281 308.128906 76.734375 309.34375 76.734375 309.902344 76.734375 310.304688 76.5 310.804688 76.042969L310.871094 76.050781C310.628906 77.859375 309.367188 78.855469 307.828125 79.03125zM308.304688 74.324219C308.304688 72.894531 308.808594 72.382813 309.53125 72.382813 310.515625 72.382813 310.914063 73.375 310.914063 74.769531 310.914063 75.730469 310.324219 76.074219 309.679688 76.074219 308.753906 76.074219 308.304688 75.363281 308.304688 74.324219M317.722656 75.675781C317.722656 73.375 316.71875 72.046875 315.277344 72.046875 313.660156 72.046875 312.800781 73.519531 312.800781 75.640625 312.800781 77.613281 313.460938 79.332031 315.257813 79.332031 317.007813 79.332031 317.722656 77.582031 317.722656 75.675781zM316.640625 75.738281C316.640625 77.882813 316.136719 78.929688 315.257813 78.929688 314.363281 78.929688 313.871094 77.859375 313.871094 75.695313 313.871094 73.488281 314.363281 72.425781 315.242188 72.425781 316.160156 72.425781 316.640625 73.476563 316.640625 75.738281M322.753906 79.210938L322.753906 78.898438C321.726563 78.898438 321.3125 78.699219 321.3125 78.152344L321.3125 72.082031 320.992188 72.082031 318.824219 72.695313 318.824219 73.0625C319.171875 72.949219 319.742188 72.886719 319.964844 72.886719 320.242188 72.886719 320.332031 73.042969 320.332031 73.429688L320.332031 78.152344C320.332031 78.707031 319.941406 78.898438 318.890625 78.898438L318.890625 79.210938 322.753906 79.210938" fill="#e14b3b" />
  <path d="M 330.644531 54.980469 C 330.644531 53.574219 329.503906 52.429688 328.09375 52.429688 C 326.683594 52.429688 325.542969 53.574219 325.542969 54.980469 C 325.542969 56.390625 326.683594 57.53125 328.09375 57.53125 C 329.503906 57.53125 330.644531 56.390625 330.644531 54.980469 Z M 330.644531 54.980469" fill="#69ba6c" />
  <path d="M 520.78125 1079.053125 L 520.78125 665.498437" transform="matrix(.1 0 0 -.1 0 142.21)" fill="none" stroke-width="7.97" stroke-linecap="round" stroke-linejoin="round" stroke="#69ba6c" stroke-miterlimit="10" />
  <path d="M 52.078125 30.441406 L 50.011719 35.910156 L 52.078125 34.105469 L 54.140625 35.910156" fill="#69ba6c" />
  <path d="M 520.78125 1117.685937 L 500.117188 1062.998437 L 520.78125 1081.045312 L 541.40625 1062.998437 Z M 520.78125 1117.685937" transform="matrix(.1 0 0 -.1 0 142.21)" fill="none" stroke-width="7.97" stroke-linecap="round" stroke="#69ba6c" stroke-miterlimit="10" />
  <path d="M 52.078125 79.523438 L 54.140625 74.054688 L 52.078125 75.859375 L 50.011719 74.054688" fill="#69ba6c" />
  <path d="M 520.78125 626.865625 L 541.40625 681.553125 L 520.78125 663.50625 L 500.117188 681.553125 Z M 520.78125 626.865625" transform="matrix(.1 0 0 -.1 0 142.21)" fill="none" stroke-width="7.97" stroke-linecap="round" stroke="#69ba6c" stroke-miterlimit="10" />
  <path d="M26.835938 90.535156L26.480469 90.535156C26.046875 91.828125 25.867188 92.242188 24.371094 92.242188L23.859375 92.242188C23.199219 92.242188 23.011719 92.140625 23.011719 91.652344L23.011719 86.808594C23.011719 85.9375 23.199219 85.714844 24.101563 85.714844L24.101563 85.378906 20.96875 85.378906 20.96875 85.714844C21.859375 85.714844 21.984375 85.9375 21.984375 86.796875L21.984375 91.339844C21.984375 92.207031 21.859375 92.375 20.96875 92.375L20.96875 92.710938 26.5 92.710938 26.835938 90.535156M29.878906 87.300781C28.371094 87.300781 27.378906 88.394531 27.378906 90.011719 27.378906 91.816406 28.316406 92.820313 29.878906 92.820313 31.328125 92.820313 32.355469 91.839844 32.355469 89.964844 32.355469 88.316406 31.40625 87.300781 29.878906 87.300781zM29.835938 87.722656C30.828125 87.722656 31.328125 88.648438 31.328125 90.019531 31.328125 91.839844 30.835938 92.375 29.921875 92.375 28.964844 92.386719 28.417969 91.640625 28.417969 89.863281 28.417969 88.4375 28.984375 87.722656 29.835938 87.722656M41.300781 87.433594L39.371094 87.433594 39.371094 87.757813C39.785156 87.757813 39.996094 87.824219 39.996094 88.035156 39.996094 88.226563 39.941406 88.382813 39.929688 88.4375L39.046875 90.9375 38.824219 91.582031 38.757813 91.582031 38.554688 90.9375 37.652344 88.492188C37.597656 88.324219 37.554688 88.167969 37.554688 88.035156 37.554688 87.855469 37.6875 87.757813 38.109375 87.757813L38.109375 87.433594 35.777344 87.433594 35.777344 87.757813C36.269531 87.757813 36.4375 87.847656 36.703125 88.570313L36.828125 88.90625 36.023438 90.9375 35.789063 91.582031 35.710938 91.582031 35.511719 90.9375 34.539063 88.472656C34.472656 88.304688 34.417969 88.179688 34.417969 88.035156 34.417969 87.855469 34.5625 87.757813 35.007813 87.757813L35.007813 87.433594 32.609375 87.433594 32.609375 87.757813C33.101563 87.757813 33.269531 87.878906 33.558594 88.570313L35.234375 92.777344 35.746094 92.777344 37.050781 89.53125 37.09375 89.53125 38.277344 92.777344 38.8125 92.777344 40.476563 88.492188C40.699219 87.914063 40.867188 87.757813 41.300781 87.757813L41.300781 87.433594M45.730469 91.113281C45.375 91.582031 45.027344 91.984375 44.125 91.984375 43.230469 91.984375 42.382813 91.28125 42.382813 89.742188L45.90625 89.742188C45.851563 88.179688 45.050781 87.300781 43.832031 87.300781 42.527344 87.300781 41.480469 88.191406 41.480469 90.054688 41.480469 91.851563 42.515625 92.820313 43.855469 92.820313 45.003906 92.820313 45.539063 92.121094 45.941406 91.269531zM42.371094 89.332031C42.460938 88.292969 42.90625 87.746094 43.664063 87.746094 44.457031 87.746094 44.828125 88.503906 44.859375 89.332031L42.371094 89.332031M48.34375 87.332031L48.074219 87.332031 46.691406 87.667969 46.691406 87.980469C46.691406 87.980469 46.8125 87.957031 47.035156 87.957031 47.4375 87.957031 47.4375 88.160156 47.4375 88.558594L47.4375 91.628906C47.4375 92.253906 47.359375 92.386719 46.625 92.386719L46.625 92.710938 49.414063 92.710938 49.414063 92.386719C48.578125 92.386719 48.363281 92.277344 48.363281 91.574219L48.363281 89.027344C48.632813 88.582031 48.988281 88.113281 49.246094 88.113281 49.378906 88.113281 49.601563 88.492188 49.96875 88.492188 50.214844 88.492188 50.460938 88.316406 50.460938 87.890625 50.460938 87.511719 50.25 87.265625 49.8125 87.265625 49.277344 87.265625 48.945313 87.65625 48.375 88.480469L48.34375 88.480469 48.34375 87.332031M55.019531 84.832031L54.726563 84.832031 53.289063 85.222656 53.289063 85.535156C53.289063 85.535156 53.421875 85.515625 53.601563 85.515625 54.023438 85.515625 54.09375 85.605469 54.09375 86.105469L54.09375 92.375C54.359375 92.519531 55.007813 92.820313 55.957031 92.820313 57.507813 92.820313 58.632813 91.773438 58.632813 89.777344 58.632813 88.324219 57.875 87.300781 56.769531 87.300781 56.023438 87.300781 55.441406 87.777344 55.050781 88.246094L55.019531 88.246094zM55.019531 88.738281C55.21875 88.472656 55.710938 88.058594 56.28125 88.058594 57.339844 88.058594 57.617188 89.0625 57.617188 90.132813 57.617188 91.371094 57.214844 92.363281 56.15625 92.363281 55.566406 92.363281 55.230469 92.097656 55.019531 91.839844L55.019531 88.738281M61.976563 87.300781C60.472656 87.300781 59.480469 88.394531 59.480469 90.011719 59.480469 91.816406 60.417969 92.820313 61.976563 92.820313 63.429688 92.820313 64.453125 91.839844 64.453125 89.964844 64.453125 88.316406 63.507813 87.300781 61.976563 87.300781zM61.933594 87.722656C62.925781 87.722656 63.429688 88.648438 63.429688 90.019531 63.429688 91.839844 62.9375 92.375 62.023438 92.375 61.0625 92.386719 60.515625 91.640625 60.515625 89.863281 60.515625 88.4375 61.085938 87.722656 61.933594 87.722656M70.824219 92.207031L70.710938 92.207031C70.179688 92.207031 70.042969 92.128906 70.042969 91.472656L70.042969 87.378906 69.773438 87.378906 68.214844 87.542969 68.214844 87.855469C68.929688 87.855469 69.117188 87.914063 69.117188 88.503906L69.117188 91.4375C68.671875 91.828125 68.3125 92.105469 67.746094 92.105469 67.164063 92.105469 66.742188 91.773438 66.742188 90.636719L66.742188 87.378906 66.496094 87.378906 65.054688 87.542969 65.054688 87.855469C65.660156 87.867188 65.816406 87.914063 65.816406 88.515625L65.816406 90.78125C65.816406 92.296875 66.351563 92.820313 67.277344 92.820313 67.992188 92.820313 68.515625 92.488281 69.105469 91.90625L69.164063 91.90625 69.164063 92.765625 69.40625 92.765625 70.824219 92.507813 70.824219 92.207031M76.566406 89.285156C76.566406 88.003906 76.085938 87.300781 75.070313 87.300781 74.367188 87.300781 73.878906 87.699219 73.273438 88.238281L73.230469 88.238281 73.242188 87.332031 72.984375 87.332031 71.570313 87.65625 71.570313 87.980469C71.570313 87.980469 71.679688 87.957031 71.867188 87.957031 72.171875 87.957031 72.335938 88.046875 72.335938 88.449219L72.335938 91.582031C72.335938 92.207031 72.304688 92.398438 71.554688 92.398438L71.554688 92.710938 74.113281 92.710938 74.113281 92.398438C73.308594 92.398438 73.265625 92.207031 73.265625 91.582031L73.265625 88.714844C73.597656 88.414063 74.011719 88.011719 74.613281 88.011719 75.117188 88.011719 75.640625 88.226563 75.640625 89.566406L75.640625 91.582031C75.640625 92.207031 75.605469 92.398438 74.8125 92.398438L74.8125 92.710938 77.390625 92.710938 77.390625 92.398438C76.644531 92.398438 76.566406 92.207031 76.566406 91.582031L76.566406 89.285156M83.433594 92.507813L83.433594 92.207031 83.199219 92.207031C82.789063 92.207031 82.640625 92.097656 82.640625 91.515625L82.640625 84.832031 82.339844 84.832031 80.9375 85.222656 80.9375 85.535156C80.9375 85.535156 81.125 85.515625 81.226563 85.515625 81.660156 85.515625 81.714844 85.613281 81.714844 86.105469L81.714844 87.566406C81.371094 87.378906 81 87.300781 80.632813 87.300781 79.226563 87.300781 78.070313 88.425781 78.070313 90.265625 78.070313 91.695313 78.714844 92.800781 79.976563 92.800781 80.710938 92.800781 81.28125 92.375 81.703125 91.996094L81.75 91.996094 81.75 92.765625 82.007813 92.765625zM81.714844 91.582031C81.328125 91.851563 81.023438 91.996094 80.5 91.996094 79.550781 91.996094 79.039063 91.371094 79.039063 89.832031 79.039063 88.425781 79.675781 87.746094 80.613281 87.746094 81.304688 87.746094 81.625 88.179688 81.714844 88.636719L81.714844 91.582031M26.390625 98.632813L26.390625 99.101563 27.238281 99.101563 27.238281 102.582031C27.238281 103.453125 27.117188 103.585938 26.300781 103.585938L26.300781 103.910156 29.300781 103.910156 29.300781 103.585938C28.375 103.585938 28.164063 103.453125 28.164063 102.582031L28.164063 99.101563 29.523438 99.101563 29.523438 98.632813 28.164063 98.632813 28.164063 97.640625C28.164063 96.703125 28.285156 96.367188 28.699219 96.367188 29.257813 96.367188 29.3125 97.214844 29.871094 97.214844 30.128906 97.214844 30.328125 97.058594 30.328125 96.738281 30.328125 96.234375 29.804688 95.957031 29.078125 95.957031 28.296875 95.957031 27.898438 96.257813 27.59375 96.769531 27.304688 97.285156 27.238281 97.785156 27.238281 98.632813L26.390625 98.632813M32.378906 98.5C30.871094 98.5 29.878906 99.59375 29.878906 101.210938 29.878906 103.019531 30.816406 104.019531 32.378906 104.019531 33.828125 104.019531 34.855469 103.039063 34.855469 101.167969 34.855469 99.515625 33.90625 98.5 32.378906 98.5zM32.335938 98.921875C33.328125 98.921875 33.828125 99.847656 33.828125 101.222656 33.828125 103.039063 33.335938 103.574219 32.421875 103.574219 31.464844 103.585938 30.917969 102.839844 30.917969 101.066406 30.917969 99.636719 31.484375 98.921875 32.335938 98.921875M37.34375 98.53125L37.074219 98.53125 35.691406 98.867188 35.691406 99.179688C35.691406 99.179688 35.8125 99.15625 36.035156 99.15625 36.4375 99.15625 36.4375 99.359375 36.4375 99.761719L36.4375 102.828125C36.4375 103.453125 36.359375 103.585938 35.625 103.585938L35.625 103.910156 38.414063 103.910156 38.414063 103.585938C37.578125 103.585938 37.363281 103.476563 37.363281 102.773438L37.363281 100.230469C37.632813 99.78125 37.988281 99.3125 38.246094 99.3125 38.378906 99.3125 38.601563 99.691406 38.96875 99.691406 39.214844 99.691406 39.460938 99.515625 39.460938 99.089844 39.460938 98.710938 39.25 98.464844 38.8125 98.464844 38.277344 98.464844 37.945313 98.855469 37.375 99.683594L37.34375 99.683594 37.34375 98.53125M45.078125 98.5C43.570313 98.5 42.578125 99.59375 42.578125 101.210938 42.578125 103.019531 43.515625 104.019531 45.078125 104.019531 46.527344 104.019531 47.554688 103.039063 47.554688 101.167969 47.554688 99.515625 46.605469 98.5 45.078125 98.5zM45.035156 98.921875C46.027344 98.921875 46.527344 99.847656 46.527344 101.222656 46.527344 103.039063 46.039063 103.574219 45.125 103.574219 44.164063 103.585938 43.617188 102.839844 43.617188 101.066406 43.617188 99.636719 44.1875 98.921875 45.035156 98.921875M53.925781 103.410156L53.8125 103.410156C53.277344 103.410156 53.144531 103.332031 53.144531 102.671875L53.144531 98.578125 52.875 98.578125 51.3125 98.746094 51.3125 99.058594C52.027344 99.058594 52.21875 99.113281 52.21875 99.703125L52.21875 102.636719C51.773438 103.027344 51.414063 103.308594 50.84375 103.308594 50.265625 103.308594 49.839844 102.972656 49.839844 101.835938L49.839844 98.578125 49.59375 98.578125 48.15625 98.746094 48.15625 99.058594C48.757813 99.066406 48.914063 99.113281 48.914063 99.714844L48.914063 101.980469C48.914063 103.496094 49.449219 104.019531 50.375 104.019531 51.089844 104.019531 51.617188 103.6875 52.207031 103.105469L52.261719 103.105469 52.261719 103.964844 52.507813 103.964844 53.925781 103.707031 53.925781 103.410156M57.570313 102.90625C57.289063 103.21875 57.144531 103.363281 56.789063 103.363281 56.351563 103.363281 56.253906 103.097656 56.253906 102.304688L56.253906 99.101563 57.511719 99.101563 57.511719 98.632813 56.253906 98.632813 56.265625 97.105469 55.972656 97.105469C55.570313 98.050781 55.238281 98.519531 54.710938 98.84375L54.710938 99.101563 55.328125 99.101563 55.328125 102.617188C55.328125 103.621094 55.648438 104.019531 56.398438 104.019531 57.109375 104.019531 57.34375 103.6875 57.78125 103.085938L57.570313 102.90625M60.699219 103.585938C59.898438 103.585938 59.84375 103.429688 59.84375 102.785156L59.84375 96.035156 59.5625 96.035156 58.089844 96.425781 58.089844 96.726563C58.089844 96.726563 58.257813 96.703125 58.445313 96.703125 58.726563 96.703125 58.914063 96.726563 58.914063 97.183594L58.914063 102.785156C58.914063 103.410156 58.871094 103.585938 58.132813 103.585938L58.132813 103.910156 60.699219 103.910156 60.699219 103.585938M62.617188 96.179688C62.226563 96.179688 61.980469 96.46875 61.980469 96.804688 61.980469 97.148438 62.238281 97.441406 62.617188 97.441406 63.007813 97.441406 63.253906 97.148438 63.253906 96.804688 63.253906 96.46875 63.007813 96.179688 62.617188 96.179688zM63.867188 103.597656C63.121094 103.597656 63.0625 103.429688 63.0625 102.785156L63.0625 98.53125 62.773438 98.53125 61.367188 98.84375 61.367188 99.167969C61.367188 99.167969 61.492188 99.144531 61.648438 99.144531 61.96875 99.144531 62.136719 99.191406 62.136719 99.671875L62.136719 102.785156C62.136719 103.417969 62.105469 103.597656 61.355469 103.597656L61.355469 103.910156 63.867188 103.910156 63.867188 103.597656M68.828125 102.316406C68.472656 102.785156 68.125 103.183594 67.222656 103.183594 66.332031 103.183594 65.484375 102.480469 65.484375 100.941406L69.007813 100.941406C68.953125 99.378906 68.148438 98.5 66.933594 98.5 65.628906 98.5 64.578125 99.390625 64.578125 101.253906 64.578125 103.050781 65.617188 104.019531 66.957031 104.019531 68.105469 104.019531 68.640625 103.320313 69.042969 102.472656zM65.472656 100.53125C65.5625 99.492188 66.007813 98.945313 66.765625 98.945313 67.558594 98.945313 67.925781 99.703125 67.960938 100.53125L65.472656 100.53125M71.441406 98.53125L71.171875 98.53125 69.789063 98.867188 69.789063 99.179688C69.789063 99.179688 69.914063 99.15625 70.136719 99.15625 70.539063 99.15625 70.539063 99.359375 70.539063 99.761719L70.539063 102.828125C70.539063 103.453125 70.460938 103.585938 69.722656 103.585938L69.722656 103.910156 72.511719 103.910156 72.511719 103.585938C71.675781 103.585938 71.464844 103.476563 71.464844 102.773438L71.464844 100.230469C71.730469 99.78125 72.089844 99.3125 72.34375 99.3125 72.480469 99.3125 72.703125 99.691406 73.070313 99.691406 73.316406 99.691406 73.5625 99.515625 73.5625 99.089844 73.5625 98.710938 73.351563 98.464844 72.914063 98.464844 72.378906 98.464844 72.042969 98.855469 71.476563 99.683594L71.441406 99.683594 71.441406 98.53125M74.132813 102.082031L74.167969 104 74.402344 104 74.636719 103.742188 74.660156 103.742188C74.949219 103.863281 75.285156 104.035156 75.929688 104.035156 76.9375 104.035156 77.804688 103.628906 77.804688 102.582031 77.804688 101.757813 77.257813 101.34375 76.242188 100.808594 75.304688 100.328125 74.9375 100.050781 74.9375 99.613281 74.9375 99.113281 75.328125 98.878906 75.84375 98.878906 76.523438 98.878906 76.9375 99.203125 77.179688 100.261719L77.480469 100.261719 77.449219 98.554688 77.226563 98.554688 77.035156 98.789063 77.023438 98.789063C76.746094 98.65625 76.410156 98.5 75.851563 98.5 74.894531 98.5 74.148438 98.988281 74.148438 99.90625 74.148438 100.730469 74.601563 101.121094 75.617188 101.632813 76.65625 102.148438 76.867188 102.359375 76.867188 102.882813 76.867188 103.410156 76.46875 103.621094 75.910156 103.621094 75.082031 103.621094 74.660156 103.230469 74.425781 102.082031L74.132813 102.082031M23.363281 111.328125C23.363281 109.140625 22.039063 107.644531 19.816406 107.644531 17.609375 107.644531 16.257813 109.175781 16.257813 111.441406 16.257813 113.714844 17.507813 115.097656 19.539063 115.234375L19.804688 115.691406C20.398438 116.707031 21.257813 117.039063 23.109375 117.039063L23.664063 117.039063 23.664063 116.671875C22.328125 116.671875 21.613281 116.226563 20.820313 115.109375L20.820313 115.089844C22.394531 114.707031 23.363281 113.269531 23.363281 111.328125zM22.195313 111.371094C22.195313 113.613281 21.414063 114.777344 19.828125 114.777344 18.222656 114.777344 17.429688 113.46875 17.429688 111.371094 17.429688 109.332031 18.34375 108.113281 19.78125 108.113281 21.222656 108.113281 22.195313 109.363281 22.195313 111.371094M28.753906 115.109375L28.753906 114.796875C27.726563 114.796875 27.3125 114.597656 27.3125 114.050781L27.3125 107.980469 26.992188 107.980469 24.824219 108.59375 24.824219 108.964844C25.171875 108.851563 25.742188 108.785156 25.964844 108.785156 26.242188 108.785156 26.332031 108.941406 26.332031 109.332031L26.332031 114.050781C26.332031 114.609375 25.941406 114.796875 24.890625 114.796875L24.890625 115.109375 28.753906 115.109375M32.691406 112.597656L39.339844 112.597656 39.339844 111.839844 32.691406 111.839844zM47.351563 115.109375L47.351563 114.796875C46.328125 114.796875 45.914063 114.597656 45.914063 114.050781L45.914063 107.980469 45.589844 107.980469 43.425781 108.59375 43.425781 108.964844C43.773438 108.851563 44.339844 108.785156 44.5625 108.785156 44.84375 108.785156 44.929688 108.941406 44.929688 109.332031L44.929688 114.050781C44.929688 114.609375 44.539063 114.796875 43.492188 114.796875L43.492188 115.109375 47.351563 115.109375M50.128906 114.5625C50.128906 114.195313 49.898438 113.871094 49.472656 113.871094 49.058594 113.871094 48.8125 114.183594 48.8125 114.550781 48.8125 114.933594 49.027344 115.199219 49.460938 115.199219 49.898438 115.199219 50.128906 114.910156 50.128906 114.5625M55.550781 108.984375L55.730469 108.082031 52.671875 108.082031 51.984375 110.992188 52.117188 111.160156C52.273438 111.160156 52.328125 111.160156 52.617188 111.183594 54.15625 111.261719 55.027344 111.71875 55.027344 113.113281 55.027344 114.273438 54.324219 114.699219 53.53125 114.699219 52.820313 114.699219 52.449219 114.152344 52.003906 114.152344 51.726563 114.152344 51.558594 114.375 51.558594 114.628906 51.558594 115.042969 51.984375 115.253906 52.839844 115.253906 54.617188 115.253906 55.84375 114.386719 55.84375 112.667969 55.84375 110.914063 54.46875 110.390625 53.152344 110.292969L52.628906 110.257813 52.929688 108.984375 55.550781 108.984375M65.71875 114.863281L63.09375 112.230469 65.71875 109.589844 65.191406 109.074219 62.546875 111.695313 59.925781 109.074219 59.390625 109.597656 62.011719 112.230469 59.390625 114.875 59.914063 115.402344 62.546875 112.769531 65.191406 115.402344 65.71875 114.863281M70.285156 113.648438C70.285156 114.609375 70.183594 114.777344 69.179688 114.777344L69.179688 115.109375 72.390625 115.109375 72.390625 114.777344C71.398438 114.777344 71.296875 114.609375 71.296875 113.648438L71.296875 109.253906C71.296875 108.382813 71.332031 108.113281 72.390625 108.113281L72.390625 107.78125 69.179688 107.78125 69.179688 108.113281C70.238281 108.113281 70.285156 108.382813 70.285156 109.253906L70.285156 113.648438M80.464844 111.328125C80.464844 109.140625 79.136719 107.644531 76.917969 107.644531 74.707031 107.644531 73.359375 109.175781 73.359375 111.441406 73.359375 113.714844 74.609375 115.097656 76.636719 115.234375L76.90625 115.691406C77.496094 116.707031 78.355469 117.039063 80.207031 117.039063L80.765625 117.039063 80.765625 116.671875C79.425781 116.671875 78.710938 116.226563 77.921875 115.109375L77.921875 115.089844C79.492188 114.707031 80.464844 113.269531 80.464844 111.328125zM79.292969 111.371094C79.292969 113.613281 78.511719 114.777344 76.929688 114.777344 75.320313 114.777344 74.53125 113.46875 74.53125 111.371094 74.53125 109.332031 75.445313 108.113281 76.882813 108.113281 78.320313 108.113281 79.292969 109.363281 79.292969 111.371094M87.101563 109.609375C87.101563 108.191406 85.898438 107.78125 84.222656 107.78125L81.480469 107.78125 81.480469 108.113281C82.371094 108.113281 82.472656 108.328125 82.472656 108.941406L82.472656 113.726563C82.472656 114.664063 82.316406 114.777344 81.480469 114.777344L81.480469 115.109375 84.613281 115.109375 84.613281 114.777344C83.65625 114.777344 83.511719 114.652344 83.511719 113.726563L83.511719 111.753906 83.820313 111.753906C84.222656 111.753906 84.347656 111.785156 84.570313 112.121094 85.027344 112.789063 85.351563 113.269531 86.566406 115.109375L88.40625 115.109375 88.40625 114.777344C87.894531 114.777344 87.617188 114.699219 87.257813 114.207031 86.03125 112.457031 85.597656 111.832031 85.21875 111.605469L85.21875 111.5625C86.121094 111.351563 87.101563 110.859375 87.101563 109.609375zM83.511719 108.25C83.742188 108.226563 84 108.214844 84.246094 108.214844 85.453125 108.214844 85.976563 108.761719 85.976563 109.65625 85.976563 110.835938 85.160156 111.273438 83.933594 111.328125L83.511719 111.316406 83.511719 108.25M38.539063 122.660156L38.539063 121.902344 31.890625 121.902344 31.890625 122.660156zM38.539063 124.9375L38.539063 124.191406 31.890625 124.191406 31.890625 124.9375 38.539063 124.9375M43.359375 120.753906C43.738281 120.164063 44.152344 119.851563 44.820313 119.851563 45.511719 119.851563 45.960938 120.230469 45.960938 120.886719 45.960938 121.792969 45.167969 122.40625 44.40625 122.40625L44.195313 122.40625 44.195313 122.828125 44.417969 122.828125C45.492188 122.828125 46.4375 123.488281 46.4375 124.480469 46.4375 125.574219 45.757813 125.898438 45.054688 125.898438 44.789063 125.898438 44.632813 125.851563 44.152344 125.605469 43.761719 125.40625 43.671875 125.351563 43.492188 125.351563 43.203125 125.351563 43.058594 125.605469 43.058594 125.839844 43.058594 126.132813 43.304688 126.457031 44.308594 126.457031 45.9375 126.457031 47.351563 125.675781 47.351563 124.144531 47.351563 123.152344 46.605469 122.5625 45.714844 122.28125L45.714844 122.25C46.414063 121.800781 46.917969 121.390625 46.917969 120.621094 46.917969 119.773438 46.257813 119.125 45.121094 119.125 44.207031 119.125 43.515625 119.636719 43.101563 120.609375L43.359375 120.753906M53 124.636719C53 123.746094 52.597656 123.207031 51.289063 122.417969L51.289063 122.382813C52.328125 121.816406 52.730469 121.445313 52.730469 120.632813 52.730469 119.75 51.882813 119.089844 50.777344 119.089844 49.550781 119.089844 48.65625 119.726563 48.65625 120.742188 48.65625 121.503906 48.902344 121.957031 50.042969 122.75L50.042969 122.785156C49.003906 123.476563 48.511719 123.832031 48.511719 124.726563 48.511719 125.863281 49.449219 126.445313 50.742188 126.445313 52.070313 126.445313 53 125.808594 53 124.636719zM51.90625 120.609375C51.90625 121.324219 51.679688 121.757813 50.945313 122.203125 49.953125 121.601563 49.527344 121.199219 49.527344 120.542969 49.527344 119.863281 49.996094 119.460938 50.757813 119.460938 51.46875 119.460938 51.90625 119.871094 51.90625 120.609375zM50.375 122.964844C51.726563 123.832031 52.0625 124.246094 52.0625 124.960938 52.0625 125.71875 51.480469 126.097656 50.789063 126.097656 49.941406 126.097656 49.382813 125.640625 49.382813 124.636719 49.382813 123.867188 49.742188 123.476563 50.375 122.964844M58.722656 122.773438C58.722656 120.476563 57.71875 119.148438 56.277344 119.148438 54.660156 119.148438 53.800781 120.621094 53.800781 122.738281 53.800781 124.714844 54.460938 126.433594 56.257813 126.433594 58.007813 126.433594 58.722656 124.683594 58.722656 122.773438zM57.640625 122.839844C57.640625 124.980469 57.136719 126.03125 56.257813 126.03125 55.363281 126.03125 54.871094 124.960938 54.871094 122.796875 54.871094 120.585938 55.363281 119.527344 56.242188 119.527344 57.160156 119.527344 57.640625 120.574219 57.640625 122.839844M61.128906 125.761719C61.128906 125.394531 60.898438 125.070313 60.472656 125.070313 60.058594 125.070313 59.8125 125.382813 59.8125 125.753906 59.8125 126.132813 60.027344 126.398438 60.460938 126.398438 60.898438 126.398438 61.128906 126.109375 61.128906 125.761719M66.976563 119.628906L66.976563 119.28125 62.714844 119.28125 62.269531 120.988281 62.613281 121.023438C62.914063 120.296875 63.003906 120.183594 63.628906 120.183594L66.117188 120.183594 63.484375 126.398438 64.367188 126.398438 66.976563 119.628906M72.050781 120.183594L72.230469 119.28125 69.171875 119.28125 68.484375 122.191406 68.617188 122.359375C68.773438 122.359375 68.828125 122.359375 69.117188 122.382813 70.65625 122.460938 71.527344 122.917969 71.527344 124.3125 71.527344 125.472656 70.824219 125.898438 70.03125 125.898438 69.320313 125.898438 68.949219 125.351563 68.503906 125.351563 68.226563 125.351563 68.058594 125.574219 68.058594 125.832031 68.058594 126.242188 68.484375 126.457031 69.339844 126.457031 71.117188 126.457031 72.34375 125.585938 72.34375 123.867188 72.34375 122.113281 70.96875 121.589844 69.652344 121.492188L69.128906 121.457031 69.429688 120.183594 72.050781 120.183594M54.628906 54.980469C54.628906 53.574219 53.484375 52.429688 52.078125 52.429688 50.667969 52.429688 49.527344 53.574219 49.527344 54.980469 49.527344 56.390625 50.667969 57.53125 52.078125 57.53125 53.484375 57.53125 54.628906 56.390625 54.628906 54.980469zM54.628906 54.980469" fill="#69ba6c" />
  <path d="M 3280.9375 1079.053125 L 3280.9375 665.498437" transform="matrix(.1 0 0 -.1 0 142.21)" fill="none" stroke-width="7.97" stroke-linecap="round" stroke-linejoin="round" stroke="#69ba6c" stroke-miterlimit="10" />
  <path d="M 328.09375 30.441406 L 326.027344 35.910156 L 328.09375 34.105469 L 330.15625 35.910156" fill="#69ba6c" />
  <path d="M 3280.9375 1117.685937 L 3260.273438 1062.998437 L 3280.9375 1081.045312 L 3301.5625 1062.998437 Z M 3280.9375 1117.685937" transform="matrix(.1 0 0 -.1 0 142.21)" fill="none" stroke-width="7.97" stroke-linecap="round" stroke="#69ba6c" stroke-miterlimit="10" />
  <path d="M 328.09375 79.523438 L 330.15625 74.054688 L 328.09375 75.859375 L 326.027344 74.054688" fill="#69ba6c" />
  <path d="M 3280.9375 626.865625 L 3301.5625 681.553125 L 3280.9375 663.50625 L 3260.273438 681.553125 Z M 3280.9375 626.865625" transform="matrix(.1 0 0 -.1 0 142.21)" fill="none" stroke-width="7.97" stroke-linecap="round" stroke="#69ba6c" stroke-miterlimit="10" />
  <path d="M304.789063 85.378906L302.054688 85.378906 302.054688 85.714844C302.992188 85.714844 303.105469 85.972656 303.105469 87.144531L303.105469 89.953125C303.105469 91.496094 302.503906 92.140625 301.039063 92.140625 299.445313 92.140625 298.941406 91.359375 298.941406 89.910156L298.941406 86.753906C298.941406 85.917969 299.089844 85.714844 300.035156 85.714844L300.035156 85.378906 296.824219 85.378906 296.824219 85.714844C297.703125 85.714844 297.917969 85.917969 297.917969 86.699219L297.917969 89.921875C297.917969 91.996094 298.785156 92.84375 300.761719 92.84375 302.871094 92.84375 303.742188 91.828125 303.742188 89.796875L303.742188 87.109375C303.742188 85.960938 303.828125 85.714844 304.789063 85.714844L304.789063 85.378906M306.964844 87.332031L306.683594 87.332031 305.28125 87.644531 305.28125 87.96875C305.28125 87.96875 305.492188 87.945313 305.636719 87.945313 306.003906 87.945313 306.058594 88.089844 306.058594 88.515625L306.058594 94.039063C306.058594 94.664063 305.949219 94.851563 305.246094 94.851563L305.246094 95.164063 308.070313 95.164063 308.070313 94.839844C307.199219 94.839844 306.984375 94.695313 306.984375 93.972656L306.984375 92.507813 307.03125 92.507813C307.355469 92.730469 307.734375 92.820313 308.15625 92.820313 309.496094 92.820313 310.601563 91.695313 310.601563 89.796875 310.601563 88.335938 309.832031 87.300781 308.726563 87.300781 308.070313 87.300781 307.53125 87.644531 306.996094 88.269531L306.964844 88.269531zM306.984375 88.738281C307.199219 88.460938 307.679688 88.058594 308.269531 88.058594 309.09375 88.058594 309.585938 88.707031 309.585938 90.109375 309.585938 91.660156 308.992188 92.386719 308.214844 92.386719 307.589844 92.386719 307.199219 91.886719 306.984375 91.652344L306.984375 88.738281M312.964844 87.332031L312.683594 87.332031 311.28125 87.644531 311.28125 87.96875C311.28125 87.96875 311.492188 87.945313 311.636719 87.945313 312.003906 87.945313 312.058594 88.089844 312.058594 88.515625L312.058594 94.039063C312.058594 94.664063 311.949219 94.851563 311.246094 94.851563L311.246094 95.164063 314.070313 95.164063 314.070313 94.839844C313.199219 94.839844 312.984375 94.695313 312.984375 93.972656L312.984375 92.507813 313.03125 92.507813C313.355469 92.730469 313.734375 92.820313 314.15625 92.820313 315.496094 92.820313 316.601563 91.695313 316.601563 89.796875 316.601563 88.335938 315.832031 87.300781 314.726563 87.300781 314.070313 87.300781 313.53125 87.644531 312.996094 88.269531L312.964844 88.269531zM312.984375 88.738281C313.199219 88.460938 313.679688 88.058594 314.269531 88.058594 315.09375 88.058594 315.585938 88.707031 315.585938 90.109375 315.585938 91.660156 314.992188 92.386719 314.214844 92.386719 313.589844 92.386719 313.199219 91.886719 312.984375 91.652344L312.984375 88.738281M321.628906 91.113281C321.273438 91.582031 320.925781 91.984375 320.023438 91.984375 319.132813 91.984375 318.28125 91.28125 318.28125 89.742188L321.808594 89.742188C321.753906 88.179688 320.949219 87.300781 319.734375 87.300781 318.429688 87.300781 317.378906 88.191406 317.378906 90.054688 317.378906 91.851563 318.417969 92.820313 319.757813 92.820313 320.90625 92.820313 321.441406 92.121094 321.84375 91.269531zM318.273438 89.332031C318.359375 88.292969 318.808594 87.746094 319.566406 87.746094 320.359375 87.746094 320.726563 88.503906 320.757813 89.332031L318.273438 89.332031M324.242188 87.332031L323.972656 87.332031 322.589844 87.667969 322.589844 87.980469C322.589844 87.980469 322.714844 87.957031 322.9375 87.957031 323.339844 87.957031 323.339844 88.160156 323.339844 88.558594L323.339844 91.628906C323.339844 92.253906 323.257813 92.386719 322.523438 92.386719L322.523438 92.710938 325.3125 92.710938 325.3125 92.386719C324.476563 92.386719 324.265625 92.277344 324.265625 91.574219L324.265625 89.027344C324.53125 88.582031 324.890625 88.113281 325.144531 88.113281 325.28125 88.113281 325.503906 88.492188 325.871094 88.492188 326.117188 88.492188 326.359375 88.316406 326.359375 87.890625 326.359375 87.511719 326.148438 87.265625 325.714844 87.265625 325.179688 87.265625 324.84375 87.65625 324.273438 88.480469L324.242188 88.480469 324.242188 87.332031M330.917969 84.832031L330.628906 84.832031 329.1875 85.222656 329.1875 85.535156C329.1875 85.535156 329.324219 85.515625 329.503906 85.515625 329.925781 85.515625 329.992188 85.605469 329.992188 86.105469L329.992188 92.375C330.261719 92.519531 330.90625 92.820313 331.855469 92.820313 333.40625 92.820313 334.53125 91.773438 334.53125 89.777344 334.53125 88.324219 333.773438 87.300781 332.671875 87.300781 331.921875 87.300781 331.34375 87.777344 330.953125 88.246094L330.917969 88.246094zM330.917969 88.738281C331.117188 88.472656 331.609375 88.058594 332.179688 88.058594 333.238281 88.058594 333.515625 89.0625 333.515625 90.132813 333.515625 91.371094 333.117188 92.363281 332.054688 92.363281 331.464844 92.363281 331.128906 92.097656 330.917969 91.839844L330.917969 88.738281M337.878906 87.300781C336.371094 87.300781 335.378906 88.394531 335.378906 90.011719 335.378906 91.816406 336.316406 92.820313 337.878906 92.820313 339.328125 92.820313 340.355469 91.839844 340.355469 89.964844 340.355469 88.316406 339.40625 87.300781 337.878906 87.300781zM337.835938 87.722656C338.828125 87.722656 339.328125 88.648438 339.328125 90.019531 339.328125 91.839844 338.839844 92.375 337.921875 92.375 336.964844 92.386719 336.417969 91.640625 336.417969 89.863281 336.417969 88.4375 336.984375 87.722656 337.835938 87.722656M346.726563 92.207031L346.613281 92.207031C346.078125 92.207031 345.945313 92.128906 345.945313 91.472656L345.945313 87.378906 345.675781 87.378906 344.113281 87.542969 344.113281 87.855469C344.828125 87.855469 345.015625 87.914063 345.015625 88.503906L345.015625 91.4375C344.570313 91.828125 344.214844 92.105469 343.644531 92.105469 343.066406 92.105469 342.640625 91.773438 342.640625 90.636719L342.640625 87.378906 342.394531 87.378906 340.957031 87.542969 340.957031 87.855469C341.558594 87.867188 341.714844 87.914063 341.714844 88.515625L341.714844 90.78125C341.714844 92.296875 342.25 92.820313 343.175781 92.820313 343.890625 92.820313 344.414063 92.488281 345.007813 91.90625L345.0625 91.90625 345.0625 92.765625 345.308594 92.765625 346.726563 92.507813 346.726563 92.207031M352.464844 89.285156C352.464844 88.003906 351.984375 87.300781 350.972656 87.300781 350.269531 87.300781 349.777344 87.699219 349.175781 88.238281L349.128906 88.238281 349.140625 87.332031 348.882813 87.332031 347.46875 87.65625 347.46875 87.980469C347.46875 87.980469 347.578125 87.957031 347.769531 87.957031 348.070313 87.957031 348.238281 88.046875 348.238281 88.449219L348.238281 91.582031C348.238281 92.207031 348.203125 92.398438 347.457031 92.398438L347.457031 92.710938 350.011719 92.710938 350.011719 92.398438C349.207031 92.398438 349.164063 92.207031 349.164063 91.582031L349.164063 88.714844C349.496094 88.414063 349.910156 88.011719 350.515625 88.011719 351.015625 88.011719 351.539063 88.226563 351.539063 89.566406L351.539063 91.582031C351.539063 92.207031 351.507813 92.398438 350.714844 92.398438L350.714844 92.710938 353.292969 92.710938 353.292969 92.398438C352.542969 92.398438 352.464844 92.207031 352.464844 91.582031L352.464844 89.285156M359.335938 92.507813L359.335938 92.207031 359.101563 92.207031C358.6875 92.207031 358.542969 92.097656 358.542969 91.515625L358.542969 84.832031 358.242188 84.832031 356.835938 85.222656 356.835938 85.535156C356.835938 85.535156 357.023438 85.515625 357.125 85.515625 357.5625 85.515625 357.617188 85.613281 357.617188 86.105469L357.617188 87.566406C357.269531 87.378906 356.902344 87.300781 356.535156 87.300781 355.128906 87.300781 353.96875 88.425781 353.96875 90.265625 353.96875 91.695313 354.617188 92.800781 355.878906 92.800781 356.613281 92.800781 357.179688 92.375 357.605469 91.996094L357.648438 91.996094 357.648438 92.765625 357.90625 92.765625zM357.617188 91.582031C357.226563 91.851563 356.925781 91.996094 356.398438 91.996094 355.453125 91.996094 354.9375 91.371094 354.9375 89.832031 354.9375 88.425781 355.574219 87.746094 356.511719 87.746094 357.203125 87.746094 357.527344 88.179688 357.617188 88.636719L357.617188 91.582031M302.390625 98.632813L302.390625 99.101563 303.238281 99.101563 303.238281 102.582031C303.238281 103.453125 303.117188 103.585938 302.300781 103.585938L302.300781 103.910156 305.300781 103.910156 305.300781 103.585938C304.378906 103.585938 304.164063 103.453125 304.164063 102.582031L304.164063 99.101563 305.523438 99.101563 305.523438 98.632813 304.164063 98.632813 304.164063 97.640625C304.164063 96.703125 304.285156 96.367188 304.699219 96.367188 305.257813 96.367188 305.3125 97.214844 305.871094 97.214844 306.128906 97.214844 306.328125 97.058594 306.328125 96.738281 306.328125 96.234375 305.804688 95.957031 305.078125 95.957031 304.296875 95.957031 303.898438 96.257813 303.59375 96.769531 303.304688 97.285156 303.238281 97.785156 303.238281 98.632813L302.390625 98.632813M308.378906 98.5C306.871094 98.5 305.878906 99.59375 305.878906 101.210938 305.878906 103.019531 306.816406 104.019531 308.378906 104.019531 309.828125 104.019531 310.855469 103.039063 310.855469 101.167969 310.855469 99.515625 309.90625 98.5 308.378906 98.5zM308.335938 98.921875C309.328125 98.921875 309.828125 99.847656 309.828125 101.222656 309.828125 103.039063 309.339844 103.574219 308.421875 103.574219 307.464844 103.585938 306.917969 102.839844 306.917969 101.066406 306.917969 99.636719 307.484375 98.921875 308.335938 98.921875M313.34375 98.53125L313.074219 98.53125 311.691406 98.867188 311.691406 99.179688C311.691406 99.179688 311.8125 99.15625 312.035156 99.15625 312.4375 99.15625 312.4375 99.359375 312.4375 99.761719L312.4375 102.828125C312.4375 103.453125 312.359375 103.585938 311.621094 103.585938L311.621094 103.910156 314.414063 103.910156 314.414063 103.585938C313.578125 103.585938 313.363281 103.476563 313.363281 102.773438L313.363281 100.230469C313.632813 99.78125 313.988281 99.3125 314.246094 99.3125 314.378906 99.3125 314.601563 99.691406 314.96875 99.691406 315.214844 99.691406 315.460938 99.515625 315.460938 99.089844 315.460938 98.710938 315.25 98.464844 314.8125 98.464844 314.277344 98.464844 313.945313 98.855469 313.375 99.683594L313.34375 99.683594 313.34375 98.53125M321.078125 98.5C319.570313 98.5 318.578125 99.59375 318.578125 101.210938 318.578125 103.019531 319.515625 104.019531 321.078125 104.019531 322.527344 104.019531 323.554688 103.039063 323.554688 101.167969 323.554688 99.515625 322.605469 98.5 321.078125 98.5zM321.035156 98.921875C322.027344 98.921875 322.527344 99.847656 322.527344 101.222656 322.527344 103.039063 322.039063 103.574219 321.121094 103.574219 320.164063 103.585938 319.617188 102.839844 319.617188 101.066406 319.617188 99.636719 320.1875 98.921875 321.035156 98.921875M329.925781 103.410156L329.8125 103.410156C329.277344 103.410156 329.144531 103.332031 329.144531 102.671875L329.144531 98.578125 328.875 98.578125 327.3125 98.746094 327.3125 99.058594C328.027344 99.058594 328.21875 99.113281 328.21875 99.703125L328.21875 102.636719C327.773438 103.027344 327.414063 103.308594 326.84375 103.308594 326.265625 103.308594 325.839844 102.972656 325.839844 101.835938L325.839844 98.578125 325.59375 98.578125 324.15625 98.746094 324.15625 99.058594C324.757813 99.066406 324.914063 99.113281 324.914063 99.714844L324.914063 101.980469C324.914063 103.496094 325.449219 104.019531 326.378906 104.019531 327.089844 104.019531 327.617188 103.6875 328.207031 103.105469L328.261719 103.105469 328.261719 103.964844 328.507813 103.964844 329.925781 103.707031 329.925781 103.410156M333.570313 102.90625C333.289063 103.21875 333.144531 103.363281 332.789063 103.363281 332.351563 103.363281 332.253906 103.097656 332.253906 102.304688L332.253906 99.101563 333.511719 99.101563 333.511719 98.632813 332.253906 98.632813 332.265625 97.105469 331.972656 97.105469C331.570313 98.050781 331.238281 98.519531 330.714844 98.84375L330.714844 99.101563 331.328125 99.101563 331.328125 102.617188C331.328125 103.621094 331.648438 104.019531 332.398438 104.019531 333.109375 104.019531 333.34375 103.6875 333.78125 103.085938L333.570313 102.90625M336.699219 103.585938C335.898438 103.585938 335.84375 103.429688 335.84375 102.785156L335.84375 96.035156 335.5625 96.035156 334.089844 96.425781 334.089844 96.726563C334.089844 96.726563 334.257813 96.703125 334.445313 96.703125 334.726563 96.703125 334.914063 96.726563 334.914063 97.183594L334.914063 102.785156C334.914063 103.410156 334.871094 103.585938 334.132813 103.585938L334.132813 103.910156 336.699219 103.910156 336.699219 103.585938M338.617188 96.179688C338.226563 96.179688 337.980469 96.46875 337.980469 96.804688 337.980469 97.148438 338.238281 97.441406 338.617188 97.441406 339.007813 97.441406 339.253906 97.148438 339.253906 96.804688 339.253906 96.46875 339.007813 96.179688 338.617188 96.179688zM339.867188 103.597656C339.121094 103.597656 339.0625 103.429688 339.0625 102.785156L339.0625 98.53125 338.773438 98.53125 337.367188 98.84375 337.367188 99.167969C337.367188 99.167969 337.492188 99.144531 337.648438 99.144531 337.96875 99.144531 338.136719 99.191406 338.136719 99.671875L338.136719 102.785156C338.136719 103.417969 338.105469 103.597656 337.355469 103.597656L337.355469 103.910156 339.867188 103.910156 339.867188 103.597656M344.828125 102.316406C344.472656 102.785156 344.128906 103.183594 343.222656 103.183594 342.332031 103.183594 341.484375 102.480469 341.484375 100.941406L345.007813 100.941406C344.953125 99.378906 344.148438 98.5 342.933594 98.5 341.628906 98.5 340.578125 99.390625 340.578125 101.253906 340.578125 103.050781 341.617188 104.019531 342.957031 104.019531 344.105469 104.019531 344.640625 103.320313 345.042969 102.472656zM341.472656 100.53125C341.5625 99.492188 342.007813 98.945313 342.765625 98.945313 343.558594 98.945313 343.925781 99.703125 343.960938 100.53125L341.472656 100.53125M347.441406 98.53125L347.171875 98.53125 345.789063 98.867188 345.789063 99.179688C345.789063 99.179688 345.914063 99.15625 346.136719 99.15625 346.539063 99.15625 346.539063 99.359375 346.539063 99.761719L346.539063 102.828125C346.539063 103.453125 346.460938 103.585938 345.722656 103.585938L345.722656 103.910156 348.511719 103.910156 348.511719 103.585938C347.675781 103.585938 347.464844 103.476563 347.464844 102.773438L347.464844 100.230469C347.730469 99.78125 348.089844 99.3125 348.34375 99.3125 348.480469 99.3125 348.703125 99.691406 349.070313 99.691406 349.316406 99.691406 349.5625 99.515625 349.5625 99.089844 349.5625 98.710938 349.351563 98.464844 348.914063 98.464844 348.378906 98.464844 348.042969 98.855469 347.476563 99.683594L347.441406 99.683594 347.441406 98.53125M350.132813 102.082031L350.167969 104 350.402344 104 350.636719 103.742188 350.660156 103.742188C350.949219 103.863281 351.285156 104.035156 351.929688 104.035156 352.9375 104.035156 353.804688 103.628906 353.804688 102.582031 353.804688 101.757813 353.257813 101.34375 352.242188 100.808594 351.304688 100.328125 350.9375 100.050781 350.9375 99.613281 350.9375 99.113281 351.328125 98.878906 351.84375 98.878906 352.523438 98.878906 352.9375 99.203125 353.179688 100.261719L353.480469 100.261719 353.449219 98.554688 353.226563 98.554688 353.035156 98.789063 353.023438 98.789063C352.746094 98.65625 352.410156 98.5 351.851563 98.5 350.894531 98.5 350.148438 98.988281 350.148438 99.90625 350.148438 100.730469 350.601563 101.121094 351.617188 101.632813 352.65625 102.148438 352.867188 102.359375 352.867188 102.882813 352.867188 103.410156 352.46875 103.621094 351.910156 103.621094 351.082031 103.621094 350.660156 103.230469 350.425781 102.082031L350.132813 102.082031M299.363281 111.328125C299.363281 109.140625 298.039063 107.644531 295.816406 107.644531 293.609375 107.644531 292.257813 109.175781 292.257813 111.441406 292.257813 113.714844 293.507813 115.097656 295.539063 115.234375L295.804688 115.691406C296.398438 116.707031 297.257813 117.039063 299.109375 117.039063L299.664063 117.039063 299.664063 116.671875C298.328125 116.671875 297.613281 116.226563 296.820313 115.109375L296.820313 115.089844C298.394531 114.707031 299.363281 113.269531 299.363281 111.328125zM298.195313 111.371094C298.195313 113.613281 297.414063 114.777344 295.828125 114.777344 294.222656 114.777344 293.429688 113.46875 293.429688 111.371094 293.429688 109.332031 294.34375 108.113281 295.78125 108.113281 297.222656 108.113281 298.195313 109.363281 298.195313 111.371094M300.960938 109.554688C301.339844 108.964844 301.753906 108.652344 302.421875 108.652344 303.113281 108.652344 303.558594 109.03125 303.558594 109.6875 303.558594 110.589844 302.765625 111.207031 302.007813 111.207031L301.796875 111.207031 301.796875 111.628906 302.019531 111.628906C303.089844 111.628906 304.039063 112.289063 304.039063 113.28125 304.039063 114.375 303.359375 114.699219 302.65625 114.699219 302.386719 114.699219 302.230469 114.652344 301.753906 114.40625 301.359375 114.207031 301.273438 114.152344 301.09375 114.152344 300.804688 114.152344 300.65625 114.40625 300.65625 114.640625 300.65625 114.933594 300.902344 115.253906 301.90625 115.253906 303.535156 115.253906 304.953125 114.472656 304.953125 112.945313 304.953125 111.953125 304.207031 111.363281 303.3125 111.082031L303.3125 111.050781C304.015625 110.601563 304.519531 110.191406 304.519531 109.421875 304.519531 108.574219 303.859375 107.925781 302.722656 107.925781 301.808594 107.925781 301.117188 108.4375 300.703125 109.410156L300.960938 109.554688M315.339844 112.597656L315.339844 111.839844 312.417969 111.839844 312.417969 108.886719 311.613281 108.886719 311.613281 111.839844 308.691406 111.839844 308.691406 112.597656 311.613281 112.597656 311.613281 115.558594 312.417969 115.558594 312.417969 112.597656 315.339844 112.597656M323.351563 115.109375L323.351563 114.796875C322.328125 114.796875 321.914063 114.597656 321.914063 114.050781L321.914063 107.980469 321.589844 107.980469 319.425781 108.59375 319.425781 108.964844C319.773438 108.851563 320.339844 108.785156 320.5625 108.785156 320.84375 108.785156 320.929688 108.941406 320.929688 109.332031L320.929688 114.050781C320.929688 114.609375 320.539063 114.796875 319.492188 114.796875L319.492188 115.109375 323.351563 115.109375M326.128906 114.5625C326.128906 114.195313 325.898438 113.871094 325.472656 113.871094 325.058594 113.871094 324.8125 114.183594 324.8125 114.550781 324.8125 114.933594 325.027344 115.199219 325.460938 115.199219 325.898438 115.199219 326.128906 114.910156 326.128906 114.5625M331.550781 108.984375L331.730469 108.082031 328.671875 108.082031 327.984375 110.992188 328.117188 111.160156C328.273438 111.160156 328.328125 111.160156 328.617188 111.183594 330.15625 111.261719 331.027344 111.71875 331.027344 113.113281 331.027344 114.273438 330.324219 114.699219 329.53125 114.699219 328.820313 114.699219 328.449219 114.152344 328.003906 114.152344 327.726563 114.152344 327.558594 114.375 327.558594 114.628906 327.558594 115.042969 327.984375 115.253906 328.839844 115.253906 330.617188 115.253906 331.84375 114.386719 331.84375 112.667969 331.84375 110.914063 330.46875 110.390625 329.152344 110.292969L328.628906 110.257813 328.929688 108.984375 331.550781 108.984375M341.71875 114.863281L339.09375 112.230469 341.71875 109.589844 341.191406 109.074219 338.546875 111.695313 335.925781 109.074219 335.390625 109.597656 338.011719 112.230469 335.390625 114.875 335.914063 115.402344 338.546875 112.769531 341.191406 115.402344 341.71875 114.863281M346.285156 113.648438C346.285156 114.609375 346.183594 114.777344 345.179688 114.777344L345.179688 115.109375 348.390625 115.109375 348.390625 114.777344C347.398438 114.777344 347.296875 114.609375 347.296875 113.648438L347.296875 109.253906C347.296875 108.382813 347.332031 108.113281 348.390625 108.113281L348.390625 107.78125 345.179688 107.78125 345.179688 108.113281C346.238281 108.113281 346.285156 108.382813 346.285156 109.253906L346.285156 113.648438M356.464844 111.328125C356.464844 109.140625 355.136719 107.644531 352.917969 107.644531 350.707031 107.644531 349.359375 109.175781 349.359375 111.441406 349.359375 113.714844 350.609375 115.097656 352.636719 115.234375L352.90625 115.691406C353.496094 116.707031 354.355469 117.039063 356.207031 117.039063L356.765625 117.039063 356.765625 116.671875C355.425781 116.671875 354.714844 116.226563 353.921875 115.109375L353.921875 115.089844C355.492188 114.707031 356.464844 113.269531 356.464844 111.328125zM355.292969 111.371094C355.292969 113.613281 354.511719 114.777344 352.929688 114.777344 351.320313 114.777344 350.53125 113.46875 350.53125 111.371094 350.53125 109.332031 351.445313 108.113281 352.882813 108.113281 354.320313 108.113281 355.292969 109.363281 355.292969 111.371094M363.101563 109.609375C363.101563 108.191406 361.898438 107.78125 360.222656 107.78125L357.480469 107.78125 357.480469 108.113281C358.371094 108.113281 358.472656 108.328125 358.472656 108.941406L358.472656 113.726563C358.472656 114.664063 358.316406 114.777344 357.480469 114.777344L357.480469 115.109375 360.613281 115.109375 360.613281 114.777344C359.65625 114.777344 359.511719 114.652344 359.511719 113.726563L359.511719 111.753906 359.820313 111.753906C360.222656 111.753906 360.347656 111.785156 360.570313 112.121094 361.027344 112.789063 361.351563 113.269531 362.566406 115.109375L364.40625 115.109375 364.40625 114.777344C363.894531 114.777344 363.617188 114.699219 363.257813 114.207031 362.03125 112.457031 361.597656 111.832031 361.21875 111.605469L361.21875 111.5625C362.121094 111.351563 363.101563 110.859375 363.101563 109.609375zM359.511719 108.25C359.742188 108.226563 360.003906 108.214844 360.246094 108.214844 361.453125 108.214844 361.976563 108.761719 361.976563 109.65625 361.976563 110.835938 361.160156 111.273438 359.933594 111.328125L359.511719 111.316406 359.511719 108.25M314.539063 122.660156L314.539063 121.902344 307.890625 121.902344 307.890625 122.660156zM314.539063 124.9375L314.539063 124.191406 307.890625 124.191406 307.890625 124.9375 314.539063 124.9375M319.347656 126.457031C321.8125 126.433594 323.421875 125.015625 323.421875 122.136719 323.421875 120.488281 322.738281 119.105469 321.078125 119.105469 319.671875 119.105469 318.835938 119.984375 318.835938 121.492188 318.835938 122.964844 319.628906 123.832031 320.84375 123.832031 321.402344 123.832031 321.804688 123.597656 322.304688 123.140625L322.371094 123.152344C322.128906 124.960938 320.867188 125.953125 319.328125 126.132813zM319.804688 121.425781C319.804688 119.996094 320.308594 119.480469 321.03125 119.480469 322.015625 119.480469 322.414063 120.476563 322.414063 121.871094 322.414063 122.828125 321.824219 123.175781 321.179688 123.175781 320.253906 123.175781 319.804688 122.460938 319.804688 121.425781M329.175781 124.527344L328.851563 124.527344C328.597656 125.195313 328.453125 125.429688 327.859375 125.429688L326.308594 125.429688 325.527344 125.460938 325.527344 125.40625 327.003906 124.011719C328.183594 122.816406 328.820313 122.050781 328.820313 121.054688 328.820313 119.882813 327.9375 119.125 326.679688 119.125 325.59375 119.125 324.839844 119.75 324.492188 120.832031L324.757813 120.945313C325.171875 120.105469 325.664063 119.851563 326.386719 119.851563 327.246094 119.851563 327.78125 120.386719 327.78125 121.222656 327.78125 122.394531 327.222656 123.097656 326.121094 124.234375L324.421875 125.929688 324.421875 126.308594 328.820313 126.308594 329.175781 124.527344M334.675781 124.527344L334.351563 124.527344C334.097656 125.195313 333.953125 125.429688 333.359375 125.429688L331.808594 125.429688 331.027344 125.460938 331.027344 125.40625 332.503906 124.011719C333.683594 122.816406 334.320313 122.050781 334.320313 121.054688 334.320313 119.882813 333.4375 119.125 332.179688 119.125 331.09375 119.125 330.339844 119.75 329.992188 120.832031L330.257813 120.945313C330.671875 120.105469 331.164063 119.851563 331.886719 119.851563 332.746094 119.851563 333.28125 120.386719 333.28125 121.222656 333.28125 122.394531 332.722656 123.097656 331.621094 124.234375L329.921875 125.929688 329.921875 126.308594 334.320313 126.308594 334.675781 124.527344M337.128906 125.761719C337.128906 125.394531 336.898438 125.070313 336.472656 125.070313 336.058594 125.070313 335.8125 125.382813 335.8125 125.753906 335.8125 126.132813 336.027344 126.398438 336.460938 126.398438 336.898438 126.398438 337.128906 126.109375 337.128906 125.761719M342.976563 119.628906L342.976563 119.28125 338.714844 119.28125 338.269531 120.988281 338.613281 121.023438C338.914063 120.296875 339.003906 120.183594 339.628906 120.183594L342.117188 120.183594 339.484375 126.398438 340.367188 126.398438 342.976563 119.628906M348.050781 120.183594L348.230469 119.28125 345.171875 119.28125 344.484375 122.191406 344.617188 122.359375C344.773438 122.359375 344.828125 122.359375 345.117188 122.382813 346.65625 122.460938 347.527344 122.917969 347.527344 124.3125 347.527344 125.472656 346.824219 125.898438 346.03125 125.898438 345.320313 125.898438 344.949219 125.351563 344.503906 125.351563 344.226563 125.351563 344.058594 125.574219 344.058594 125.832031 344.058594 126.242188 344.484375 126.457031 345.339844 126.457031 347.117188 126.457031 348.34375 125.585938 348.34375 123.867188 348.34375 122.113281 346.96875 121.589844 345.652344 121.492188L345.128906 121.457031 345.429688 120.183594 348.050781 120.183594" fill="#69ba6c" />
  <path d="M25.460938 65.953125C25.839844 65.363281 26.25 65.050781 26.921875 65.050781 27.613281 65.050781 28.058594 65.429688 28.058594 66.089844 28.058594 66.992188 27.265625 67.605469 26.507813 67.605469L26.296875 67.605469 26.296875 68.027344 26.519531 68.027344C27.589844 68.027344 28.539063 68.6875 28.539063 69.679688 28.539063 70.773438 27.859375 71.097656 27.15625 71.097656 26.886719 71.097656 26.730469 71.050781 26.25 70.808594 25.859375 70.605469 25.773438 70.550781 25.59375 70.550781 25.304688 70.550781 25.15625 70.808594 25.15625 71.042969 25.15625 71.332031 25.402344 71.65625 26.40625 71.65625 28.035156 71.65625 29.453125 70.875 29.453125 69.347656 29.453125 68.351563 28.707031 67.761719 27.8125 67.480469L27.8125 67.449219C28.515625 67.003906 29.019531 66.589844 29.019531 65.820313 29.019531 64.972656 28.359375 64.324219 27.222656 64.324219 26.308594 64.324219 25.617188 64.839844 25.203125 65.808594L25.460938 65.953125M34.652344 65.386719L34.832031 64.480469 31.773438 64.480469 31.082031 67.394531 31.214844 67.558594C31.371094 67.558594 31.429688 67.558594 31.71875 67.582031 33.257813 67.660156 34.128906 68.117188 34.128906 69.511719 34.128906 70.671875 33.425781 71.097656 32.632813 71.097656 31.917969 71.097656 31.550781 70.550781 31.105469 70.550781 30.824219 70.550781 30.65625 70.773438 30.65625 71.03125 30.65625 71.441406 31.082031 71.65625 31.941406 71.65625 33.714844 71.65625 34.941406 70.785156 34.941406 69.066406 34.941406 67.316406 33.570313 66.792969 32.253906 66.691406L31.730469 66.65625 32.03125 65.386719 34.652344 65.386719M40.820313 67.972656C40.820313 65.675781 39.816406 64.347656 38.378906 64.347656 36.761719 64.347656 35.902344 65.820313 35.902344 67.941406 35.902344 69.914063 36.558594 71.632813 38.355469 71.632813 40.109375 71.632813 40.820313 69.882813 40.820313 67.972656zM39.738281 68.039063C39.738281 70.183594 39.238281 71.230469 38.355469 71.230469 37.460938 71.230469 36.972656 70.160156 36.972656 67.996094 36.972656 65.785156 37.460938 64.726563 38.34375 64.726563 39.257813 64.726563 39.738281 65.777344 39.738281 68.039063M81.164063 69.746094L81.164063 68.976563 80.027344 68.976563 80.027344 64.316406 79.347656 64.316406 75.945313 69.042969 75.945313 69.746094 79.035156 69.746094 79.035156 71.511719 80.027344 71.511719 80.027344 69.746094zM79.035156 68.976563L76.558594 68.976563 76.558594 68.933594 78.992188 65.53125 79.035156 65.53125 79.035156 68.976563M86.050781 65.386719L86.230469 64.480469 83.171875 64.480469 82.484375 67.394531 82.617188 67.558594C82.773438 67.558594 82.828125 67.558594 83.117188 67.582031 84.65625 67.660156 85.527344 68.117188 85.527344 69.511719 85.527344 70.671875 84.824219 71.097656 84.03125 71.097656 83.320313 71.097656 82.949219 70.550781 82.503906 70.550781 82.226563 70.550781 82.058594 70.773438 82.058594 71.03125 82.058594 71.441406 82.484375 71.65625 83.339844 71.65625 85.117188 71.65625 86.34375 70.785156 86.34375 69.066406 86.34375 67.316406 84.96875 66.792969 83.652344 66.691406L83.128906 66.65625 83.429688 65.386719 86.050781 65.386719M92.121094 67.972656C92.121094 65.675781 91.117188 64.347656 89.679688 64.347656 88.0625 64.347656 87.203125 65.820313 87.203125 67.941406 87.203125 69.914063 87.859375 71.632813 89.65625 71.632813 91.40625 71.632813 92.121094 69.882813 92.121094 67.972656zM91.039063 68.039063C91.039063 70.183594 90.539063 71.230469 89.65625 71.230469 88.761719 71.230469 88.273438 70.160156 88.273438 67.996094 88.273438 65.785156 88.761719 64.726563 89.644531 64.726563 90.558594 64.726563 91.039063 65.777344 91.039063 68.039063M131.851563 65.285156L132.03125 64.382813 128.972656 64.382813 128.28125 67.292969 128.414063 67.460938C128.570313 67.460938 128.628906 67.460938 128.917969 67.484375 130.457031 67.5625 131.328125 68.019531 131.328125 69.414063 131.328125 70.574219 130.625 70.996094 129.832031 70.996094 129.117188 70.996094 128.75 70.449219 128.304688 70.449219 128.023438 70.449219 127.859375 70.675781 127.859375 70.929688 127.859375 71.34375 128.28125 71.554688 129.140625 71.554688 130.914063 71.554688 132.140625 70.683594 132.140625 68.964844 132.140625 67.214844 130.769531 66.691406 129.453125 66.589844L128.929688 66.558594 129.230469 65.285156 131.851563 65.285156M137.351563 65.285156L137.53125 64.382813 134.472656 64.382813 133.78125 67.292969 133.914063 67.460938C134.070313 67.460938 134.128906 67.460938 134.417969 67.484375 135.957031 67.5625 136.828125 68.019531 136.828125 69.414063 136.828125 70.574219 136.125 70.996094 135.332031 70.996094 134.617188 70.996094 134.25 70.449219 133.804688 70.449219 133.523438 70.449219 133.359375 70.675781 133.359375 70.929688 133.359375 71.34375 133.78125 71.554688 134.640625 71.554688 136.414063 71.554688 137.640625 70.683594 137.640625 68.964844 137.640625 67.214844 136.269531 66.691406 134.953125 66.589844L134.429688 66.558594 134.730469 65.285156 137.351563 65.285156M143.523438 67.875C143.523438 65.574219 142.515625 64.246094 141.078125 64.246094 139.460938 64.246094 138.601563 65.722656 138.601563 67.839844 138.601563 69.816406 139.257813 71.535156 141.054688 71.535156 142.808594 71.535156 143.523438 69.78125 143.523438 67.875zM142.4375 67.941406C142.4375 70.082031 141.9375 71.128906 141.054688 71.128906 140.164063 71.128906 139.671875 70.058594 139.671875 67.894531 139.671875 65.6875 140.164063 64.628906 141.042969 64.628906 141.960938 64.628906 142.4375 65.675781 142.4375 67.941406M183.230469 64.304688C180.832031 64.402344 179.101563 65.953125 179.101563 68.644531 179.101563 70.285156 179.828125 71.644531 181.488281 71.644531 182.894531 71.644531 183.699219 70.761719 183.699219 69.246094 183.699219 67.785156 182.90625 66.902344 181.691406 66.902344 181.109375 66.902344 180.695313 67.148438 180.242188 67.59375L180.164063 67.582031C180.441406 65.953125 181.691406 64.863281 183.253906 64.628906zM182.726563 69.335938C182.726563 70.75 182.28125 71.253906 181.535156 71.253906 180.5625 71.253906 180.105469 70.261719 180.105469 68.878906 180.105469 67.90625 180.707031 67.550781 181.355469 67.550781 182.28125 67.550781 182.726563 68.332031 182.726563 69.335938M188.753906 65.386719L188.929688 64.480469 185.871094 64.480469 185.183594 67.394531 185.316406 67.558594C185.472656 67.558594 185.527344 67.558594 185.820313 67.582031 187.359375 67.660156 188.226563 68.117188 188.226563 69.511719 188.226563 70.671875 187.523438 71.097656 186.734375 71.097656 186.019531 71.097656 185.648438 70.550781 185.203125 70.550781 184.925781 70.550781 184.757813 70.773438 184.757813 71.03125 184.757813 71.441406 185.183594 71.65625 186.039063 71.65625 187.816406 71.65625 189.042969 70.785156 189.042969 69.066406 189.042969 67.316406 187.671875 66.792969 186.351563 66.691406L185.828125 66.65625 186.128906 65.386719 188.753906 65.386719M194.820313 67.972656C194.820313 65.675781 193.816406 64.347656 192.378906 64.347656 190.761719 64.347656 189.902344 65.820313 189.902344 67.941406 189.902344 69.914063 190.558594 71.632813 192.355469 71.632813 194.109375 71.632813 194.820313 69.882813 194.820313 67.972656zM193.738281 68.039063C193.738281 70.183594 193.238281 71.230469 192.355469 71.230469 191.464844 71.230469 190.972656 70.160156 190.972656 67.996094 190.972656 65.785156 191.464844 64.726563 192.34375 64.726563 193.257813 64.726563 193.738281 65.777344 193.738281 68.039063M235.078125 64.726563L235.078125 64.382813 230.8125 64.382813 230.367188 66.089844 230.714844 66.121094C231.015625 65.398438 231.105469 65.285156 231.730469 65.285156L234.21875 65.285156 231.585938 71.5 232.464844 71.5 235.078125 64.726563M240.152344 65.285156L240.332031 64.382813 237.273438 64.382813 236.582031 67.292969 236.714844 67.460938C236.871094 67.460938 236.929688 67.460938 237.21875 67.484375 238.757813 67.5625 239.628906 68.019531 239.628906 69.414063 239.628906 70.574219 238.925781 70.996094 238.132813 70.996094 237.417969 70.996094 237.050781 70.449219 236.605469 70.449219 236.324219 70.449219 236.15625 70.675781 236.15625 70.929688 236.15625 71.34375 236.582031 71.554688 237.441406 71.554688 239.214844 71.554688 240.441406 70.683594 240.441406 68.964844 240.441406 67.214844 239.070313 66.691406 237.753906 66.589844L237.230469 66.558594 237.53125 65.285156 240.152344 65.285156M246.222656 67.875C246.222656 65.574219 245.21875 64.246094 243.777344 64.246094 242.160156 64.246094 241.300781 65.722656 241.300781 67.839844 241.300781 69.816406 241.960938 71.535156 243.757813 71.535156 245.507813 71.535156 246.222656 69.78125 246.222656 67.875zM245.140625 67.941406C245.140625 70.082031 244.636719 71.128906 243.757813 71.128906 242.863281 71.128906 242.371094 70.058594 242.371094 67.894531 242.371094 65.6875 242.863281 64.628906 243.742188 64.628906 244.660156 64.628906 245.140625 65.675781 245.140625 67.941406M286.296875 69.835938C286.296875 68.945313 285.898438 68.410156 284.589844 67.617188L284.589844 67.582031C285.628906 67.015625 286.03125 66.644531 286.03125 65.832031 286.03125 64.949219 285.183594 64.292969 284.078125 64.292969 282.851563 64.292969 281.957031 64.925781 281.957031 65.941406 281.957031 66.703125 282.203125 67.160156 283.34375 67.949219L283.34375 67.984375C282.304688 68.675781 281.8125 69.035156 281.8125 69.925781 281.8125 71.0625 282.75 71.644531 284.042969 71.644531 285.371094 71.644531 286.296875 71.007813 286.296875 69.835938zM285.203125 65.808594C285.203125 66.523438 284.980469 66.957031 284.246094 67.402344 283.253906 66.800781 282.828125 66.402344 282.828125 65.742188 282.828125 65.0625 283.296875 64.660156 284.054688 64.660156 284.769531 64.660156 285.203125 65.074219 285.203125 65.808594zM283.675781 68.164063C285.027344 69.035156 285.359375 69.445313 285.359375 70.160156 285.359375 70.917969 284.78125 71.296875 284.089844 71.296875 283.242188 71.296875 282.683594 70.839844 282.683594 69.835938 282.683594 69.066406 283.039063 68.675781 283.675781 68.164063M291.453125 65.386719L291.632813 64.480469 288.574219 64.480469 287.882813 67.394531 288.015625 67.558594C288.171875 67.558594 288.226563 67.558594 288.519531 67.582031 290.058594 67.660156 290.929688 68.117188 290.929688 69.511719 290.929688 70.671875 290.226563 71.097656 289.433594 71.097656 288.71875 71.097656 288.351563 70.550781 287.90625 70.550781 287.625 70.550781 287.457031 70.773438 287.457031 71.03125 287.457031 71.441406 287.882813 71.65625 288.742188 71.65625 290.515625 71.65625 291.742188 70.785156 291.742188 69.066406 291.742188 67.316406 290.371094 66.792969 289.054688 66.691406L288.53125 66.65625 288.828125 65.386719 291.453125 65.386719M297.523438 67.972656C297.523438 65.675781 296.515625 64.347656 295.078125 64.347656 293.460938 64.347656 292.601563 65.820313 292.601563 67.941406 292.601563 69.914063 293.257813 71.632813 295.054688 71.632813 296.808594 71.632813 297.523438 69.882813 297.523438 67.972656zM296.4375 68.039063C296.4375 70.183594 295.9375 71.230469 295.054688 71.230469 294.164063 71.230469 293.671875 70.160156 293.671875 67.996094 293.671875 65.785156 294.164063 64.726563 295.042969 64.726563 295.960938 64.726563 296.4375 65.777344 296.4375 68.039063M333.546875 71.65625C336.015625 71.632813 337.621094 70.214844 337.621094 67.339844 337.621094 65.6875 336.9375 64.304688 335.277344 64.304688 333.871094 64.304688 333.035156 65.183594 333.035156 66.691406 333.035156 68.164063 333.828125 69.035156 335.042969 69.035156 335.601563 69.035156 336.003906 68.800781 336.503906 68.339844L336.570313 68.351563C336.328125 70.160156 335.066406 71.152344 333.527344 71.332031zM334.007813 66.625C334.007813 65.195313 334.507813 64.683594 335.234375 64.683594 336.214844 64.683594 336.617188 65.675781 336.617188 67.070313 336.617188 68.027344 336.023438 68.375 335.378906 68.375 334.453125 68.375 334.007813 67.660156 334.007813 66.625M342.851563 65.386719L343.03125 64.480469 339.972656 64.480469 339.28125 67.394531 339.414063 67.558594C339.570313 67.558594 339.628906 67.558594 339.917969 67.582031 341.457031 67.660156 342.328125 68.117188 342.328125 69.511719 342.328125 70.671875 341.625 71.097656 340.832031 71.097656 340.117188 71.097656 339.75 70.550781 339.304688 70.550781 339.023438 70.550781 338.859375 70.773438 338.859375 71.03125 338.859375 71.441406 339.28125 71.65625 340.140625 71.65625 341.914063 71.65625 343.140625 70.785156 343.140625 69.066406 343.140625 67.316406 341.769531 66.792969 340.453125 66.691406L339.929688 66.65625 340.230469 65.386719 342.851563 65.386719M348.921875 67.972656C348.921875 65.675781 347.917969 64.347656 346.476563 64.347656 344.859375 64.347656 344.003906 65.820313 344.003906 67.941406 344.003906 69.914063 344.660156 71.632813 346.457031 71.632813 348.207031 71.632813 348.921875 69.882813 348.921875 67.972656zM347.839844 68.039063C347.839844 70.183594 347.339844 71.230469 346.457031 71.230469 345.5625 71.230469 345.070313 70.160156 345.070313 67.996094 345.070313 65.785156 345.5625 64.726563 346.445313 64.726563 347.359375 64.726563 347.839844 65.777344 347.839844 68.039063" />
  <path d="M 1509.296875 1027.725 L 1509.296875 716.865625" transform="matrix(.1 0 0 -.1 0 142.21)" fill="none" stroke-width="7.97" stroke-linecap="round" stroke-linejoin="round" stroke="#55a4e0" stroke-miterlimit="10" />
  <path d="M 150.929688 35.574219 L 148.863281 41.046875 L 150.929688 39.238281 L 152.992188 41.046875" fill="#55a4e0" />
  <path d="M 1509.296875 1066.357812 L 1488.632813 1011.63125 L 1509.296875 1029.717187 L 1529.921875 1011.63125 Z M 1509.296875 1066.357812" transform="matrix(.1 0 0 -.1 0 142.21)" fill="none" stroke-width="7.97" stroke-linecap="round" stroke="#55a4e0" stroke-miterlimit="10" />
  <path d="M 150.929688 74.386719 L 152.992188 68.917969 L 150.929688 70.722656 L 148.863281 68.917969" fill="#55a4e0" />
  <path d="M 1509.296875 678.232812 L 1529.921875 732.920312 L 1509.296875 714.873437 L 1488.632813 732.920312 Z M 1509.296875 678.232812" transform="matrix(.1 0 0 -.1 0 142.21)" fill="none" stroke-width="7.97" stroke-linecap="round" stroke="#55a4e0" stroke-miterlimit="10" />
  <path d="M151.664063 83.328125C151.664063 81.140625 150.339844 79.644531 148.117188 79.644531 145.90625 79.644531 144.558594 81.175781 144.558594 83.441406 144.558594 85.714844 145.808594 87.097656 147.839844 87.234375L148.105469 87.691406C148.695313 88.707031 149.554688 89.039063 151.40625 89.039063L151.964844 89.039063 151.964844 88.671875C150.628906 88.671875 149.914063 88.226563 149.121094 87.109375L149.121094 87.089844C150.695313 86.707031 151.664063 85.269531 151.664063 83.328125zM150.492188 83.371094C150.492188 85.613281 149.714844 86.777344 148.128906 86.777344 146.523438 86.777344 145.730469 85.46875 145.730469 83.371094 145.730469 81.332031 146.644531 80.113281 148.082031 80.113281 149.523438 80.113281 150.492188 81.363281 150.492188 83.371094M157.054688 87.109375L157.054688 86.796875C156.027344 86.796875 155.613281 86.597656 155.613281 86.050781L155.613281 79.980469 155.289063 79.980469 153.125 80.59375 153.125 80.964844C153.472656 80.851563 154.039063 80.785156 154.265625 80.785156 154.542969 80.785156 154.632813 80.941406 154.632813 81.332031L154.632813 86.050781C154.632813 86.609375 154.242188 86.796875 153.191406 86.796875L153.191406 87.109375 157.054688 87.109375M144.339844 94.761719L144.339844 94.003906 137.691406 94.003906 137.691406 94.761719zM144.339844 97.039063L144.339844 96.289063 137.691406 96.289063 137.691406 97.039063 144.339844 97.039063M152.851563 92.285156L153.03125 91.382813 149.972656 91.382813 149.28125 94.292969 149.414063 94.460938C149.570313 94.460938 149.628906 94.460938 149.917969 94.484375 151.457031 94.5625 152.328125 95.019531 152.328125 96.414063 152.328125 97.574219 151.625 97.996094 150.832031 97.996094 150.117188 97.996094 149.75 97.449219 149.304688 97.449219 149.023438 97.449219 148.859375 97.675781 148.859375 97.929688 148.859375 98.34375 149.28125 98.554688 150.140625 98.554688 151.914063 98.554688 153.140625 97.683594 153.140625 95.964844 153.140625 94.214844 151.769531 93.691406 150.453125 93.589844L149.929688 93.558594 150.230469 92.285156 152.851563 92.285156M158.699219 96.738281C158.699219 95.84375 158.296875 95.308594 156.992188 94.515625L156.992188 94.484375C158.027344 93.914063 158.429688 93.546875 158.429688 92.730469 158.429688 91.851563 157.582031 91.191406 156.476563 91.191406 155.25 91.191406 154.359375 91.828125 154.359375 92.84375 154.359375 93.601563 154.601563 94.058594 155.742188 94.851563L155.742188 94.886719C154.703125 95.574219 154.214844 95.933594 154.214844 96.824219 154.214844 97.964844 155.148438 98.542969 156.445313 98.542969 157.773438 98.542969 158.699219 97.910156 158.699219 96.738281zM157.605469 92.707031C157.605469 93.421875 157.382813 93.859375 156.644531 94.304688 155.652344 93.703125 155.226563 93.300781 155.226563 92.644531 155.226563 91.960938 155.695313 91.558594 156.457031 91.558594 157.171875 91.558594 157.605469 91.972656 157.605469 92.707031zM156.078125 95.0625C157.425781 95.933594 157.761719 96.347656 157.761719 97.058594 157.761719 97.820313 157.179688 98.199219 156.488281 98.199219 155.640625 98.199219 155.082031 97.742188 155.082031 96.738281 155.082031 95.964844 155.441406 95.574219 156.078125 95.0625M164.664063 96.648438L164.664063 95.878906 163.527344 95.878906 163.527344 91.214844 162.847656 91.214844 159.445313 95.945313 159.445313 96.648438 162.535156 96.648438 162.535156 98.410156 163.527344 98.410156 163.527344 96.648438zM162.535156 95.878906L160.058594 95.878906 160.058594 95.832031 162.492188 92.429688 162.535156 92.429688 162.535156 95.878906" fill="#55a4e0" />
  <path d="M 2228.203125 1027.725 L 2228.203125 716.865625" transform="matrix(.1 0 0 -.1 0 142.21)" fill="none" stroke-width="7.97" stroke-linecap="round" stroke-linejoin="round" stroke="#55a4e0" stroke-miterlimit="10" />
  <path d="M 222.820313 35.574219 L 220.757813 41.046875 L 222.820313 39.238281 L 224.886719 41.046875" fill="#55a4e0" />
  <path d="M 2228.203125 1066.357812 L 2207.578125 1011.63125 L 2228.203125 1029.717187 L 2248.867188 1011.63125 Z M 2228.203125 1066.357812" transform="matrix(.1 0 0 -.1 0 142.21)" fill="none" stroke-width="7.97" stroke-linecap="round" stroke="#55a4e0" stroke-miterlimit="10" />
  <path d="M 222.820313 74.386719 L 224.886719 68.917969 L 222.820313 70.722656 L 220.757813 68.917969" fill="#55a4e0" />
  <path d="M 2228.203125 678.232812 L 2248.867188 732.920312 L 2228.203125 714.873437 L 2207.578125 732.920312 Z M 2228.203125 678.232812" transform="matrix(.1 0 0 -.1 0 142.21)" fill="none" stroke-width="7.97" stroke-linecap="round" stroke="#55a4e0" stroke-miterlimit="10" />
  <path d="M223.5625 83.328125C223.5625 81.140625 222.238281 79.644531 220.015625 79.644531 217.808594 79.644531 216.457031 81.175781 216.457031 83.441406 216.457031 85.714844 217.707031 87.097656 219.738281 87.234375L220.007813 87.691406C220.597656 88.707031 221.457031 89.039063 223.308594 89.039063L223.867188 89.039063 223.867188 88.671875C222.527344 88.671875 221.8125 88.226563 221.019531 87.109375L221.019531 87.089844C222.59375 86.707031 223.5625 85.269531 223.5625 83.328125zM222.394531 83.371094C222.394531 85.613281 221.613281 86.777344 220.027344 86.777344 218.421875 86.777344 217.628906 85.46875 217.628906 83.371094 217.628906 81.332031 218.542969 80.113281 219.984375 80.113281 221.421875 80.113281 222.394531 81.363281 222.394531 83.371094M225.160156 81.554688C225.539063 80.964844 225.953125 80.652344 226.621094 80.652344 227.3125 80.652344 227.757813 81.03125 227.757813 81.6875 227.757813 82.589844 226.96875 83.207031 226.207031 83.207031L225.996094 83.207031 225.996094 83.628906 226.21875 83.628906C227.289063 83.628906 228.238281 84.289063 228.238281 85.28125 228.238281 86.375 227.558594 86.699219 226.855469 86.699219 226.589844 86.699219 226.429688 86.652344 225.953125 86.40625 225.5625 86.207031 225.472656 86.152344 225.292969 86.152344 225.003906 86.152344 224.859375 86.40625 224.859375 86.640625 224.859375 86.933594 225.101563 87.253906 226.109375 87.253906 227.734375 87.253906 229.152344 86.472656 229.152344 84.945313 229.152344 83.953125 228.40625 83.363281 227.515625 83.082031L227.515625 83.050781C228.214844 82.601563 228.71875 82.191406 228.71875 81.421875 228.71875 80.574219 228.058594 79.925781 226.921875 79.925781 226.007813 79.925781 225.316406 80.4375 224.902344 81.410156L225.160156 81.554688M212.140625 94.761719L212.140625 94.003906 205.492188 94.003906 205.492188 94.761719zM212.140625 97.039063L212.140625 96.289063 205.492188 96.289063 205.492188 97.039063 212.140625 97.039063M221.078125 91.726563L221.078125 91.382813 216.8125 91.382813 216.367188 93.089844 216.714844 93.121094C217.015625 92.398438 217.105469 92.285156 217.730469 92.285156L220.21875 92.285156 217.585938 98.5 218.464844 98.5 221.078125 91.726563M226.253906 98.410156L226.253906 98.097656C225.226563 98.097656 224.8125 97.898438 224.8125 97.351563L224.8125 91.28125 224.492188 91.28125 222.324219 91.894531 222.324219 92.261719C222.671875 92.152344 223.242188 92.085938 223.464844 92.085938 223.742188 92.085938 223.832031 92.242188 223.832031 92.628906L223.832031 97.351563C223.832031 97.910156 223.441406 98.097656 222.390625 98.097656L222.390625 98.410156 226.253906 98.410156M227.949219 98.554688C230.414063 98.535156 232.019531 97.117188 232.019531 94.238281 232.019531 92.585938 231.339844 91.203125 229.679688 91.203125 228.273438 91.203125 227.433594 92.085938 227.433594 93.589844 227.433594 95.0625 228.226563 95.933594 229.445313 95.933594 230.003906 95.933594 230.402344 95.699219 230.90625 95.242188L230.972656 95.253906C230.726563 97.058594 229.464844 98.054688 227.925781 98.230469zM228.40625 93.523438C228.40625 92.097656 228.90625 91.582031 229.632813 91.582031 230.613281 91.582031 231.015625 92.574219 231.015625 93.96875 231.015625 94.929688 230.425781 95.277344 229.777344 95.277344 228.851563 95.277344 228.40625 94.5625 228.40625 93.523438M234.628906 97.863281C234.628906 97.496094 234.398438 97.171875 233.972656 97.171875 233.558594 97.171875 233.3125 97.484375 233.3125 97.851563 233.3125 98.230469 233.527344 98.5 233.960938 98.5 234.398438 98.5 234.628906 98.207031 234.628906 97.863281M239.953125 92.285156L240.132813 91.382813 237.074219 91.382813 236.382813 94.292969 236.515625 94.460938C236.671875 94.460938 236.726563 94.460938 237.019531 94.484375 238.558594 94.5625 239.429688 95.019531 239.429688 96.414063 239.429688 97.574219 238.726563 97.996094 237.933594 97.996094 237.21875 97.996094 236.851563 97.449219 236.40625 97.449219 236.125 97.449219 235.957031 97.675781 235.957031 97.929688 235.957031 98.34375 236.382813 98.554688 237.242188 98.554688 239.015625 98.554688 240.242188 97.683594 240.242188 95.964844 240.242188 94.214844 238.871094 93.691406 237.554688 93.589844L237.03125 93.558594 237.328125 92.285156 239.953125 92.285156" fill="#55a4e0" />
  <path d="M 570.742188 1129.053125 L 1459.296875 1129.053125" transform="matrix(.1 0 0 -.1 0 142.21)" fill="none" stroke-width="7.97" stroke-linecap="round" stroke-linejoin="round" stroke="#69ba6c" stroke-dasharray="29.8883,29.8883" stroke-miterlimit="10" />
  <path d="M 53.210938 29.304688 L 58.679688 31.371094 L 56.875 29.304688 L 58.679688 27.242188" fill="#69ba6c" />
  <path d="M 532.109375 1129.053125 L 586.796875 1108.389062 L 568.75 1129.053125 L 586.796875 1149.678125 Z M 532.109375 1129.053125" transform="matrix(.1 0 0 -.1 0 142.21)" fill="none" stroke-width="7.97" stroke-linecap="round" stroke="#69ba6c" stroke-miterlimit="10" />
  <path d="M 149.792969 29.304688 L 144.324219 27.242188 L 146.128906 29.304688 L 144.324219 31.371094" fill="#69ba6c" />
  <path d="M 1497.929688 1129.053125 L 1443.242188 1149.678125 L 1461.289063 1129.053125 L 1443.242188 1108.389062 Z M 1497.929688 1129.053125" transform="matrix(.1 0 0 -.1 0 142.21)" fill="none" stroke-width="7.97" stroke-linecap="round" stroke="#69ba6c" stroke-miterlimit="10" />
  <path d="M83.351563 23.210938L83.351563 22.898438C82.328125 22.898438 81.914063 22.695313 81.914063 22.152344L81.914063 16.082031 81.589844 16.082031 79.425781 16.695313 79.425781 17.0625C79.773438 16.949219 80.339844 16.886719 80.5625 16.886719 80.84375 16.886719 80.929688 17.039063 80.929688 17.429688L80.929688 22.152344C80.929688 22.707031 80.539063 22.898438 79.492188 22.898438L79.492188 23.210938 83.351563 23.210938M86.128906 22.664063C86.128906 22.296875 85.898438 21.972656 85.472656 21.972656 85.058594 21.972656 84.8125 22.28125 84.8125 22.652344 84.8125 23.03125 85.027344 23.300781 85.460938 23.300781 85.898438 23.300781 86.128906 23.007813 86.128906 22.664063M91.550781 17.085938L91.730469 16.183594 88.671875 16.183594 87.984375 19.09375 88.117188 19.261719C88.273438 19.261719 88.328125 19.261719 88.617188 19.28125 90.15625 19.363281 91.027344 19.816406 91.027344 21.214844 91.027344 22.371094 90.324219 22.796875 89.53125 22.796875 88.820313 22.796875 88.449219 22.25 88.003906 22.25 87.726563 22.25 87.558594 22.472656 87.558594 22.730469 87.558594 23.144531 87.984375 23.355469 88.839844 23.355469 90.617188 23.355469 91.84375 22.484375 91.84375 20.765625 91.84375 19.015625 90.46875 18.492188 89.152344 18.390625L88.628906 18.355469 88.929688 17.085938 91.550781 17.085938M101.71875 22.964844L99.09375 20.332031 101.71875 17.6875 101.191406 17.175781 98.546875 19.796875 95.925781 17.175781 95.390625 17.699219 98.011719 20.332031 95.390625 22.976563 95.914063 23.5 98.546875 20.867188 101.191406 23.5 101.71875 22.964844M106.285156 21.75C106.285156 22.707031 106.183594 22.875 105.179688 22.875L105.179688 23.210938 108.390625 23.210938 108.390625 22.875C107.398438 22.875 107.296875 22.707031 107.296875 21.75L107.296875 17.351563C107.296875 16.484375 107.332031 16.214844 108.390625 16.214844L108.390625 15.878906 105.179688 15.878906 105.179688 16.214844C106.238281 16.214844 106.285156 16.484375 106.285156 17.351563L106.285156 21.75M116.464844 19.429688C116.464844 17.242188 115.136719 15.746094 112.917969 15.746094 110.707031 15.746094 109.359375 17.273438 109.359375 19.539063 109.359375 21.816406 110.609375 23.199219 112.636719 23.332031L112.90625 23.789063C113.496094 24.804688 114.355469 25.140625 116.207031 25.140625L116.765625 25.140625 116.765625 24.773438C115.425781 24.773438 114.714844 24.324219 113.921875 23.210938L113.921875 23.1875C115.492188 22.808594 116.464844 21.367188 116.464844 19.429688zM115.292969 19.472656C115.292969 21.714844 114.511719 22.875 112.929688 22.875 111.320313 22.875 110.53125 21.570313 110.53125 19.472656 110.53125 17.429688 111.445313 16.214844 112.882813 16.214844 114.320313 16.214844 115.292969 17.464844 115.292969 19.472656M123.101563 17.710938C123.101563 16.292969 121.898438 15.878906 120.222656 15.878906L117.480469 15.878906 117.480469 16.214844C118.371094 16.214844 118.472656 16.425781 118.472656 17.039063L118.472656 21.828125C118.472656 22.761719 118.316406 22.875 117.480469 22.875L117.480469 23.210938 120.613281 23.210938 120.613281 22.875C119.65625 22.875 119.511719 22.753906 119.511719 21.828125L119.511719 19.851563 119.820313 19.851563C120.222656 19.851563 120.347656 19.886719 120.570313 20.21875 121.027344 20.890625 121.351563 21.367188 122.566406 23.210938L124.40625 23.210938 124.40625 22.875C123.894531 22.875 123.617188 22.796875 123.257813 22.308594 122.03125 20.554688 121.597656 19.929688 121.21875 19.707031L121.21875 19.660156C122.121094 19.449219 123.101563 18.960938 123.101563 17.710938zM119.511719 16.347656C119.742188 16.328125 120.003906 16.316406 120.246094 16.316406 121.453125 16.316406 121.976563 16.863281 121.976563 17.753906 121.976563 18.9375 121.160156 19.371094 119.933594 19.429688L119.511719 19.414063 119.511719 16.347656" fill="#69ba6c" />
  <path d="M 1559.257813 1077.685937 L 2178.242188 1077.685937" transform="matrix(.1 0 0 -.1 0 142.21)" fill="none" stroke-width="7.97" stroke-linecap="round" stroke-linejoin="round" stroke="#62aadf" stroke-dasharray="29.8883,29.8883" stroke-miterlimit="10" />
  <path d="M 152.0625 34.441406 L 157.53125 36.503906 L 155.726563 34.441406 L 157.53125 32.378906" fill="#62aadf" />
  <path d="M 1520.625 1077.685937 L 1575.3125 1057.060937 L 1557.265625 1077.685937 L 1575.3125 1098.310937 Z M 1520.625 1077.685937" transform="matrix(.1 0 0 -.1 0 142.21)" fill="none" stroke-width="7.97" stroke-linecap="round" stroke="#62aadf" stroke-miterlimit="10" />
  <path d="M 221.6875 34.441406 L 216.21875 32.378906 L 218.023438 34.441406 L 216.21875 36.503906" fill="#62aadf" />
  <path d="M 2216.875 1077.685937 L 2162.1875 1098.310937 L 2180.234375 1077.685937 L 2162.1875 1057.060937 Z M 2216.875 1077.685937" transform="matrix(.1 0 0 -.1 0 142.21)" fill="none" stroke-width="7.97" stroke-linecap="round" stroke="#62aadf" stroke-miterlimit="10" />
  <path d="M158.882813 26.949219C158.882813 27.90625 158.78125 28.074219 157.78125 28.074219L157.78125 28.410156 160.992188 28.410156 160.992188 28.074219C160 28.074219 159.898438 27.90625 159.898438 26.949219L159.898438 22.550781C159.898438 21.683594 159.933594 21.414063 160.992188 21.414063L160.992188 21.078125 157.78125 21.078125 157.78125 21.414063C158.839844 21.414063 158.882813 21.683594 158.882813 22.550781L158.882813 26.949219M169.0625 24.628906C169.0625 22.441406 167.738281 20.945313 165.515625 20.945313 163.308594 20.945313 161.957031 22.472656 161.957031 24.738281 161.957031 27.015625 163.207031 28.398438 165.238281 28.53125L165.507813 28.988281C166.097656 30.003906 166.957031 30.339844 168.808594 30.339844L169.367188 30.339844 169.367188 29.972656C168.027344 29.972656 167.3125 29.527344 166.519531 28.410156L166.519531 28.386719C168.09375 28.007813 169.0625 26.570313 169.0625 24.628906zM167.894531 24.671875C167.894531 26.914063 167.113281 28.074219 165.527344 28.074219 163.921875 28.074219 163.128906 26.769531 163.128906 24.671875 163.128906 22.628906 164.042969 21.414063 165.484375 21.414063 166.921875 21.414063 167.894531 22.664063 167.894531 24.671875M175.804688 22.910156C175.804688 21.492188 174.597656 21.078125 172.921875 21.078125L170.179688 21.078125 170.179688 21.414063C171.070313 21.414063 171.171875 21.628906 171.171875 22.242188L171.171875 27.027344C171.171875 27.964844 171.015625 28.074219 170.179688 28.074219L170.179688 28.410156 173.3125 28.410156 173.3125 28.074219C172.355469 28.074219 172.210938 27.953125 172.210938 27.027344L172.210938 25.050781 172.523438 25.050781C172.921875 25.050781 173.046875 25.085938 173.269531 25.417969 173.726563 26.089844 174.050781 26.570313 175.265625 28.410156L177.109375 28.410156 177.109375 28.074219C176.59375 28.074219 176.316406 27.996094 175.960938 27.507813 174.730469 25.753906 174.296875 25.128906 173.917969 24.90625L173.917969 24.863281C174.820313 24.652344 175.804688 24.160156 175.804688 22.910156zM172.210938 21.550781C172.445313 21.527344 172.703125 21.515625 172.945313 21.515625 174.152344 21.515625 174.675781 22.0625 174.675781 22.953125 174.675781 24.136719 173.859375 24.570313 172.632813 24.628906L172.210938 24.617188 172.210938 21.550781M187.539063 24.761719L187.539063 24.003906 180.890625 24.003906 180.890625 24.761719zM187.539063 27.039063L187.539063 26.289063 180.890625 26.289063 180.890625 27.039063 187.539063 27.039063M196.152344 28.410156L196.152344 28.097656C195.128906 28.097656 194.714844 27.898438 194.714844 27.351563L194.714844 21.28125 194.390625 21.28125 192.226563 21.894531 192.226563 22.261719C192.570313 22.152344 193.140625 22.085938 193.363281 22.085938 193.640625 22.085938 193.730469 22.242188 193.730469 22.628906L193.730469 27.351563C193.730469 27.90625 193.339844 28.097656 192.292969 28.097656L192.292969 28.410156 196.152344 28.410156M197.859375 22.855469C198.238281 22.261719 198.652344 21.949219 199.320313 21.949219 200.011719 21.949219 200.460938 22.328125 200.460938 22.988281 200.460938 23.890625 199.667969 24.503906 198.90625 24.503906L198.695313 24.503906 198.695313 24.929688 198.917969 24.929688C199.992188 24.929688 200.9375 25.589844 200.9375 26.578125 200.9375 27.675781 200.257813 27.996094 199.554688 27.996094 199.289063 27.996094 199.132813 27.953125 198.652344 27.707031 198.261719 27.507813 198.171875 27.449219 197.992188 27.449219 197.703125 27.449219 197.558594 27.707031 197.558594 27.941406 197.558594 28.230469 197.804688 28.554688 198.808594 28.554688 200.4375 28.554688 201.851563 27.773438 201.851563 26.246094 201.851563 25.253906 201.105469 24.660156 200.214844 24.382813L200.214844 24.347656C200.914063 23.902344 201.417969 23.488281 201.417969 22.722656 201.417969 21.871094 200.757813 21.226563 199.621094 21.226563 198.707031 21.226563 198.015625 21.738281 197.601563 22.707031L197.859375 22.855469M207.152344 22.285156L207.332031 21.382813 204.273438 21.382813 203.582031 24.292969 203.714844 24.460938C203.871094 24.460938 203.929688 24.460938 204.21875 24.484375 205.757813 24.5625 206.628906 25.019531 206.628906 26.414063 206.628906 27.570313 205.925781 27.996094 205.132813 27.996094 204.417969 27.996094 204.050781 27.449219 203.605469 27.449219 203.324219 27.449219 203.15625 27.675781 203.15625 27.929688 203.15625 28.34375 203.582031 28.554688 204.441406 28.554688 206.214844 28.554688 207.441406 27.683594 207.441406 25.964844 207.441406 24.214844 206.070313 23.691406 204.753906 23.589844L204.230469 23.558594 204.53125 22.285156 207.152344 22.285156M210.03125 27.863281C210.03125 27.496094 209.796875 27.171875 209.371094 27.171875 208.960938 27.171875 208.714844 27.484375 208.714844 27.851563 208.714844 28.230469 208.925781 28.5 209.359375 28.5 209.796875 28.5 210.03125 28.207031 210.03125 27.863281M215.453125 22.285156L215.632813 21.382813 212.574219 21.382813 211.882813 24.292969 212.015625 24.460938C212.171875 24.460938 212.226563 24.460938 212.519531 24.484375 214.058594 24.5625 214.929688 25.019531 214.929688 26.414063 214.929688 27.570313 214.226563 27.996094 213.433594 27.996094 212.71875 27.996094 212.351563 27.449219 211.90625 27.449219 211.625 27.449219 211.457031 27.675781 211.457031 27.929688 211.457031 28.34375 211.882813 28.554688 212.742188 28.554688 214.515625 28.554688 215.742188 27.683594 215.742188 25.964844 215.742188 24.214844 214.371094 23.691406 213.054688 23.589844L212.53125 23.558594 212.828125 22.285156 215.453125 22.285156" fill="#62aadf" />
  <path d="M 2278.203125 1129.053125 L 3230.9375 1129.053125" transform="matrix(.1 0 0 -.1 0 142.21)" fill="none" stroke-width="7.97" stroke-linecap="round" stroke-linejoin="round" stroke="#69ba6c" stroke-dasharray="29.8883,29.8883" stroke-miterlimit="10" />
  <path d="M 223.957031 29.304688 L 229.425781 31.371094 L 227.621094 29.304688 L 229.425781 27.242188" fill="#69ba6c" />
  <path d="M 2239.570313 1129.053125 L 2294.257813 1108.389062 L 2276.210938 1129.053125 L 2294.257813 1149.678125 Z M 2239.570313 1129.053125" transform="matrix(.1 0 0 -.1 0 142.21)" fill="none" stroke-width="7.97" stroke-linecap="round" stroke="#69ba6c" stroke-miterlimit="10" />
  <path d="M 326.957031 29.304688 L 321.488281 27.242188 L 323.292969 29.304688 L 321.488281 31.371094" fill="#69ba6c" />
  <path d="M 3269.570313 1129.053125 L 3214.882813 1149.678125 L 3232.929688 1129.053125 L 3214.882813 1108.389062 Z M 3269.570313 1129.053125" transform="matrix(.1 0 0 -.1 0 142.21)" fill="none" stroke-width="7.97" stroke-linecap="round" stroke="#69ba6c" stroke-miterlimit="10" />
  <path d="M257.253906 23.210938L257.253906 22.898438C256.226563 22.898438 255.8125 22.695313 255.8125 22.152344L255.8125 16.082031 255.492188 16.082031 253.324219 16.695313 253.324219 17.0625C253.671875 16.949219 254.242188 16.886719 254.464844 16.886719 254.742188 16.886719 254.832031 17.039063 254.832031 17.429688L254.832031 22.152344C254.832031 22.707031 254.441406 22.898438 253.390625 22.898438L253.390625 23.210938 257.253906 23.210938M260.128906 22.664063C260.128906 22.296875 259.898438 21.972656 259.472656 21.972656 259.058594 21.972656 258.8125 22.28125 258.8125 22.652344 258.8125 23.03125 259.027344 23.300781 259.460938 23.300781 259.898438 23.300781 260.128906 23.007813 260.128906 22.664063M265.453125 17.085938L265.632813 16.183594 262.574219 16.183594 261.882813 19.09375 262.015625 19.261719C262.171875 19.261719 262.226563 19.261719 262.519531 19.28125 264.058594 19.363281 264.929688 19.816406 264.929688 21.214844 264.929688 22.371094 264.226563 22.796875 263.433594 22.796875 262.71875 22.796875 262.351563 22.25 261.90625 22.25 261.625 22.25 261.457031 22.472656 261.457031 22.730469 261.457031 23.144531 261.882813 23.355469 262.742188 23.355469 264.515625 23.355469 265.742188 22.484375 265.742188 20.765625 265.742188 19.015625 264.371094 18.492188 263.054688 18.390625L262.53125 18.355469 262.828125 17.085938 265.453125 17.085938M275.71875 22.964844L273.09375 20.332031 275.71875 17.6875 275.191406 17.175781 272.546875 19.796875 269.925781 17.175781 269.390625 17.699219 272.011719 20.332031 269.390625 22.976563 269.914063 23.5 272.546875 20.867188 275.191406 23.5 275.71875 22.964844M280.183594 21.75C280.183594 22.707031 280.082031 22.875 279.078125 22.875L279.078125 23.210938 282.292969 23.210938 282.292969 22.875C281.300781 22.875 281.199219 22.707031 281.199219 21.75L281.199219 17.351563C281.199219 16.484375 281.234375 16.214844 282.292969 16.214844L282.292969 15.878906 279.078125 15.878906 279.078125 16.214844C280.140625 16.214844 280.183594 16.484375 280.183594 17.351563L280.183594 21.75M290.363281 19.429688C290.363281 17.242188 289.039063 15.746094 286.816406 15.746094 284.609375 15.746094 283.257813 17.273438 283.257813 19.539063 283.257813 21.816406 284.507813 23.199219 286.539063 23.332031L286.804688 23.789063C287.398438 24.804688 288.257813 25.140625 290.109375 25.140625L290.664063 25.140625 290.664063 24.773438C289.328125 24.773438 288.613281 24.324219 287.820313 23.210938L287.820313 23.1875C289.394531 22.808594 290.363281 21.367188 290.363281 19.429688zM289.195313 19.472656C289.195313 21.714844 288.414063 22.875 286.828125 22.875 285.222656 22.875 284.429688 21.570313 284.429688 19.472656 284.429688 17.429688 285.34375 16.214844 286.78125 16.214844 288.222656 16.214844 289.195313 17.464844 289.195313 19.472656M297.101563 17.710938C297.101563 16.292969 295.898438 15.878906 294.222656 15.878906L291.480469 15.878906 291.480469 16.214844C292.371094 16.214844 292.472656 16.425781 292.472656 17.039063L292.472656 21.828125C292.472656 22.761719 292.316406 22.875 291.480469 22.875L291.480469 23.210938 294.613281 23.210938 294.613281 22.875C293.65625 22.875 293.511719 22.753906 293.511719 21.828125L293.511719 19.851563 293.820313 19.851563C294.222656 19.851563 294.347656 19.886719 294.570313 20.21875 295.027344 20.890625 295.351563 21.367188 296.566406 23.210938L298.40625 23.210938 298.40625 22.875C297.894531 22.875 297.617188 22.796875 297.257813 22.308594 296.03125 20.554688 295.597656 19.929688 295.21875 19.707031L295.21875 19.660156C296.121094 19.449219 297.101563 18.960938 297.101563 17.710938zM293.511719 16.347656C293.742188 16.328125 294.003906 16.316406 294.246094 16.316406 295.453125 16.316406 295.976563 16.863281 295.976563 17.753906 295.976563 18.9375 295.160156 19.371094 293.933594 19.429688L293.511719 19.414063 293.511719 16.347656" fill="#69ba6c" />
</svg>